<svg width="181" height="53" viewBox="0 0 181 53" fill="none" xmlns="http://www.w3.org/2000/svg">
<path d="M26.5 53V39.75C19.1757 39.75 13.25 33.8243 13.25 26.5H0C0 41.1486 11.8514 53 26.5 53Z" fill="#0071FF"/>
<path d="M26.5 53V39.75C33.8243 39.75 39.75 33.8243 39.75 26.5H53C53 41.1486 41.1486 53 26.5 53Z" fill="#142438"/>
<path d="M39.75 0V13.25C47.0743 13.25 53 19.1757 53 26.5H66.25C66.25 11.8514 54.3986 0 39.75 0Z" fill="#0071FF"/>
<path d="M39.75 0V13.25C32.4257 13.25 26.5 19.1757 26.5 26.5H13.25C13.25 11.8514 25.1014 0 39.75 0Z" fill="#142438"/>
<path d="M107.91 33.27C107.074 33.27 106.238 33.2407 105.402 33.182C104.581 33.138 103.723 33.0207 102.828 32.83V18.046C103.532 17.914 104.302 17.8187 105.138 17.76C105.974 17.6867 106.751 17.65 107.47 17.65C108.438 17.65 109.325 17.7233 110.132 17.87C110.953 18.002 111.657 18.2367 112.244 18.574C112.831 18.9113 113.285 19.3587 113.608 19.916C113.945 20.4587 114.114 21.1333 114.114 21.94C114.114 23.1573 113.527 24.118 112.354 24.822C113.322 25.1887 113.982 25.6873 114.334 26.318C114.686 26.9487 114.862 27.66 114.862 28.452C114.862 30.0507 114.275 31.2533 113.102 32.06C111.943 32.8667 110.213 33.27 107.91 33.27ZM106.172 26.428V30.366C106.421 30.3953 106.693 30.4173 106.986 30.432C107.279 30.4467 107.602 30.454 107.954 30.454C108.981 30.454 109.809 30.3073 110.44 30.014C111.071 29.7207 111.386 29.178 111.386 28.386C111.386 27.682 111.122 27.1833 110.594 26.89C110.066 26.582 109.311 26.428 108.328 26.428H106.172ZM106.172 23.81H107.844C108.9 23.81 109.655 23.678 110.11 23.414C110.565 23.1353 110.792 22.6953 110.792 22.094C110.792 21.478 110.557 21.0453 110.088 20.796C109.619 20.5467 108.929 20.422 108.02 20.422C107.727 20.422 107.411 20.4293 107.074 20.444C106.737 20.444 106.436 20.4587 106.172 20.488V23.81Z" fill="#0071FF"/>
<path d="M124.363 24.404C124.07 24.3307 123.725 24.2573 123.329 24.184C122.933 24.096 122.508 24.052 122.053 24.052C121.848 24.052 121.599 24.074 121.305 24.118C121.027 24.1473 120.814 24.184 120.667 24.228V33.072H117.389V22.116C117.976 21.9107 118.665 21.72 119.457 21.544C120.264 21.3533 121.159 21.258 122.141 21.258C122.317 21.258 122.53 21.2727 122.779 21.302C123.029 21.3167 123.278 21.346 123.527 21.39C123.777 21.4193 124.026 21.4633 124.275 21.522C124.525 21.566 124.737 21.6247 124.913 21.698L124.363 24.404Z" fill="#0071FF"/>
<path d="M129.949 33.072H126.671V21.5H129.949V33.072ZM130.257 18.156C130.257 18.7573 130.059 19.234 129.663 19.586C129.281 19.9233 128.827 20.092 128.299 20.092C127.771 20.092 127.309 19.9233 126.913 19.586C126.531 19.234 126.341 18.7573 126.341 18.156C126.341 17.5547 126.531 17.0853 126.913 16.748C127.309 16.396 127.771 16.22 128.299 16.22C128.827 16.22 129.281 16.396 129.663 16.748C130.059 17.0853 130.257 17.5547 130.257 18.156Z" fill="#0071FF"/>
<path d="M135.824 27.198C135.824 28.21 136.051 29.024 136.506 29.64C136.961 30.256 137.635 30.564 138.53 30.564C138.823 30.564 139.095 30.5567 139.344 30.542C139.593 30.5127 139.799 30.4833 139.96 30.454V24.492C139.755 24.36 139.483 24.25 139.146 24.162C138.823 24.074 138.493 24.03 138.156 24.03C136.601 24.03 135.824 25.086 135.824 27.198ZM143.238 32.698C142.945 32.786 142.607 32.874 142.226 32.962C141.845 33.0353 141.441 33.1013 141.016 33.16C140.605 33.2187 140.18 33.2627 139.74 33.292C139.315 33.336 138.904 33.358 138.508 33.358C137.555 33.358 136.704 33.2187 135.956 32.94C135.208 32.6613 134.577 32.2653 134.064 31.752C133.551 31.224 133.155 30.5933 132.876 29.86C132.612 29.112 132.48 28.276 132.48 27.352C132.48 26.4133 132.597 25.57 132.832 24.822C133.067 24.0593 133.404 23.414 133.844 22.886C134.284 22.358 134.819 21.9547 135.45 21.676C136.095 21.3973 136.829 21.258 137.65 21.258C138.105 21.258 138.508 21.302 138.86 21.39C139.227 21.478 139.593 21.6027 139.96 21.764V16.528L143.238 16V32.698Z" fill="#0071FF"/>
<path d="M149.101 26.912C149.101 28.7453 149.842 29.662 151.323 29.662C151.661 29.662 151.976 29.618 152.269 29.53C152.563 29.442 152.812 29.3393 153.017 29.222V23.986C152.856 23.9567 152.665 23.9347 152.445 23.92C152.225 23.8907 151.969 23.876 151.675 23.876C150.81 23.876 150.165 24.162 149.739 24.734C149.314 25.306 149.101 26.032 149.101 26.912ZM156.295 31.62C156.295 33.512 155.811 34.9127 154.843 35.822C153.89 36.746 152.409 37.208 150.399 37.208C149.695 37.208 148.991 37.142 148.287 37.01C147.583 36.8927 146.931 36.7313 146.329 36.526L146.901 33.776C147.415 33.9813 147.95 34.1427 148.507 34.26C149.079 34.3773 149.725 34.436 150.443 34.436C151.382 34.436 152.042 34.2307 152.423 33.82C152.819 33.4093 153.017 32.8813 153.017 32.236V31.818C152.665 31.9793 152.299 32.104 151.917 32.192C151.551 32.2653 151.147 32.302 150.707 32.302C149.109 32.302 147.884 31.8327 147.033 30.894C146.183 29.9407 145.757 28.6133 145.757 26.912C145.757 26.0613 145.889 25.2913 146.153 24.602C146.417 23.898 146.799 23.2967 147.297 22.798C147.811 22.2993 148.434 21.918 149.167 21.654C149.901 21.3753 150.729 21.236 151.653 21.236C152.049 21.236 152.453 21.258 152.863 21.302C153.289 21.3313 153.707 21.3753 154.117 21.434C154.528 21.4927 154.917 21.566 155.283 21.654C155.665 21.7273 156.002 21.808 156.295 21.896V31.62Z" fill="#0071FF"/>
<path d="M158.82 27.374C158.82 26.3473 158.974 25.4527 159.282 24.69C159.605 23.9127 160.023 23.2673 160.536 22.754C161.049 22.2407 161.636 21.852 162.296 21.588C162.971 21.324 163.66 21.192 164.364 21.192C166.007 21.192 167.305 21.698 168.258 22.71C169.211 23.7073 169.688 25.1813 169.688 27.132C169.688 27.3227 169.681 27.5353 169.666 27.77C169.651 27.99 169.637 28.188 169.622 28.364H162.186C162.259 29.0387 162.575 29.574 163.132 29.97C163.689 30.366 164.437 30.564 165.376 30.564C165.977 30.564 166.564 30.5127 167.136 30.41C167.723 30.2927 168.199 30.1533 168.566 29.992L169.006 32.654C168.83 32.742 168.595 32.83 168.302 32.918C168.009 33.006 167.679 33.0793 167.312 33.138C166.96 33.2113 166.579 33.27 166.168 33.314C165.757 33.358 165.347 33.38 164.936 33.38C163.895 33.38 162.985 33.226 162.208 32.918C161.445 32.61 160.807 32.192 160.294 31.664C159.795 31.1213 159.421 30.4833 159.172 29.75C158.937 29.0167 158.82 28.2247 158.82 27.374ZM166.52 26.12C166.505 25.8413 166.454 25.57 166.366 25.306C166.293 25.042 166.168 24.8073 165.992 24.602C165.831 24.3967 165.618 24.228 165.354 24.096C165.105 23.964 164.789 23.898 164.408 23.898C164.041 23.898 163.726 23.964 163.462 24.096C163.198 24.2133 162.978 24.3747 162.802 24.58C162.626 24.7853 162.487 25.0273 162.384 25.306C162.296 25.57 162.23 25.8413 162.186 26.12H166.52Z" fill="#0071FF"/>
<path d="M175.539 30.718C176.141 30.718 176.566 30.6593 176.815 30.542C177.065 30.4247 177.189 30.1973 177.189 29.86C177.189 29.596 177.028 29.3687 176.705 29.178C176.383 28.9727 175.891 28.7453 175.231 28.496C174.718 28.3053 174.249 28.1073 173.824 27.902C173.413 27.6967 173.061 27.4547 172.767 27.176C172.474 26.8827 172.247 26.538 172.085 26.142C171.924 25.746 171.843 25.2693 171.843 24.712C171.843 23.6267 172.247 22.7687 173.053 22.138C173.86 21.5073 174.967 21.192 176.375 21.192C177.079 21.192 177.754 21.258 178.399 21.39C179.045 21.5073 179.558 21.6393 179.939 21.786L179.368 24.338C178.986 24.206 178.568 24.0887 178.113 23.986C177.673 23.8833 177.175 23.832 176.618 23.832C175.591 23.832 175.077 24.118 175.077 24.69C175.077 24.822 175.1 24.9393 175.144 25.042C175.188 25.1447 175.276 25.2473 175.408 25.35C175.54 25.438 175.716 25.5407 175.936 25.658C176.17 25.7607 176.463 25.878 176.815 26.01C177.534 26.274 178.128 26.538 178.597 26.802C179.067 27.0513 179.434 27.33 179.698 27.638C179.976 27.9313 180.167 28.2613 180.27 28.628C180.387 28.9947 180.445 29.42 180.445 29.904C180.445 31.048 180.013 31.9133 179.147 32.5C178.297 33.0867 177.087 33.38 175.518 33.38C174.491 33.38 173.633 33.292 172.943 33.116C172.269 32.94 171.799 32.7933 171.535 32.676L172.085 30.014C172.643 30.234 173.215 30.41 173.801 30.542C174.388 30.6593 174.967 30.718 175.539 30.718Z" fill="#0071FF"/>
<path d="M77.1937 30.278C77.3551 30.2927 77.5384 30.3074 77.7437 30.322C77.9637 30.322 78.2204 30.322 78.5137 30.322C80.2297 30.322 81.4984 29.8894 82.3197 29.024C83.1557 28.1587 83.5737 26.9634 83.5737 25.438C83.5737 23.8394 83.1777 22.6294 82.3857 21.808C81.5937 20.9867 80.3397 20.576 78.6237 20.576C78.3891 20.576 78.1471 20.5834 77.8977 20.598C77.6484 20.598 77.4137 20.6127 77.1937 20.642V30.278ZM87.1157 25.438C87.1157 26.758 86.9104 27.9094 86.4997 28.892C86.0891 29.8747 85.5024 30.6887 84.7397 31.334C83.9917 31.9794 83.0751 32.4634 81.9897 32.786C80.9044 33.1087 79.6871 33.27 78.3377 33.27C77.7217 33.27 77.0031 33.2407 76.1817 33.182C75.3604 33.138 74.5537 33.0354 73.7617 32.874V18.024C74.5537 17.8774 75.3751 17.782 76.2257 17.738C77.0911 17.6794 77.8317 17.65 78.4477 17.65C79.7531 17.65 80.9337 17.7967 81.9897 18.09C83.0604 18.3834 83.9771 18.8454 84.7397 19.476C85.5024 20.1067 86.0891 20.9134 86.4997 21.896C86.9104 22.8787 87.1157 24.0594 87.1157 25.438Z" fill="#142438"/>
<path d="M89.2124 27.374C89.2124 26.3474 89.3664 25.4527 89.6744 24.69C89.9971 23.9127 90.4151 23.2674 90.9284 22.754C91.4418 22.2407 92.0284 21.852 92.6884 21.588C93.3631 21.324 94.0524 21.192 94.7564 21.192C96.3991 21.192 97.6971 21.698 98.6504 22.71C99.6038 23.7074 100.08 25.1814 100.08 27.132C100.08 27.3227 100.073 27.5354 100.058 27.77C100.044 27.99 100.029 28.188 100.014 28.364H92.5784C92.6518 29.0387 92.9671 29.574 93.5244 29.97C94.0818 30.366 94.8298 30.564 95.7684 30.564C96.3698 30.564 96.9564 30.5127 97.5284 30.41C98.1151 30.2927 98.5918 30.1534 98.9584 29.992L99.3984 32.654C99.2224 32.742 98.9878 32.83 98.6944 32.918C98.4011 33.006 98.0711 33.0794 97.7044 33.138C97.3524 33.2114 96.9711 33.27 96.5604 33.314C96.1498 33.358 95.7391 33.38 95.3284 33.38C94.2871 33.38 93.3778 33.226 92.6004 32.918C91.8378 32.61 91.1998 32.192 90.6864 31.664C90.1878 31.1214 89.8138 30.4834 89.5644 29.75C89.3298 29.0167 89.2124 28.2247 89.2124 27.374ZM96.9124 26.12C96.8978 25.8414 96.8464 25.57 96.7584 25.306C96.6851 25.042 96.5604 24.8074 96.3844 24.602C96.2231 24.3967 96.0104 24.228 95.7464 24.096C95.4971 23.964 95.1818 23.898 94.8004 23.898C94.4338 23.898 94.1184 23.964 93.8544 24.096C93.5904 24.2134 93.3704 24.3747 93.1944 24.58C93.0184 24.7854 92.8791 25.0274 92.7764 25.306C92.6884 25.57 92.6224 25.8414 92.5784 26.12H96.9124Z" fill="#142438"/>
</svg>
