<svg width="17" height="21" viewBox="0 0 17 21" fill="none" xmlns="http://www.w3.org/2000/svg">
<path d="M16.0554 8.72045C16.3738 6.59119 14.7528 5.44664 12.5361 4.68311L13.2552 1.79885L11.4994 1.36137L10.7994 4.16969C10.3378 4.05457 9.86384 3.94609 9.39272 3.83856L10.0978 1.01171L8.34319 0.574219L7.62369 3.45754C7.24173 3.37057 6.86657 3.28462 6.5026 3.19406L6.50463 3.18499L4.08344 2.58037L3.61639 4.45561C3.61639 4.45561 4.919 4.7542 4.89154 4.77258C5.60252 4.95003 5.73109 5.42068 5.70974 5.79372L4.89061 9.07957C4.93956 9.092 5.00307 9.10999 5.07314 9.13815C5.01456 9.1236 4.95223 9.10772 4.88756 9.09224L3.73941 13.6952C3.65252 13.9112 3.43198 14.2354 2.9349 14.1123C2.95249 14.1378 1.6588 13.7939 1.6588 13.7939L0.787109 15.8036L3.07191 16.3732C3.49697 16.4798 3.91349 16.5913 4.32369 16.6962L3.59715 19.6135L5.35085 20.051L6.07035 17.1646C6.54944 17.2947 7.01438 17.4147 7.46955 17.5278L6.75247 20.4005L8.50828 20.838L9.23474 17.9261C12.2286 18.4927 14.4798 18.2643 15.4274 15.5563C16.1909 13.3761 15.3894 12.1185 13.8143 11.2984C14.9615 11.0339 15.8256 10.2793 16.056 8.72068L16.0554 8.72029L16.0554 8.72045ZM12.0439 14.3455C11.5013 16.5258 7.83047 15.3472 6.64032 15.0517L7.60445 11.1867C8.79452 11.4838 12.611 12.0718 12.044 14.3455H12.0439ZM12.5869 8.68885C12.0919 10.672 9.03665 9.66448 8.04554 9.41742L8.91965 5.91213C9.91076 6.15918 13.1025 6.62029 12.5871 8.68885H12.5869Z" fill="white"/>
</svg>
