<svg width="23" height="18" viewBox="0 0 23 18" fill="none" xmlns="http://www.w3.org/2000/svg">
<path fill-rule="evenodd" clip-rule="evenodd" d="M19.1716 0.964562L22.3536 4.14654C22.5488 4.3418 22.5488 4.65839 22.3536 4.85365L19.1716 8.03563C18.9763 8.23089 18.6597 8.23089 18.4645 8.03563C18.2692 7.84037 18.2692 7.52378 18.4645 7.32852L20.7929 5.0001H1V4.0001H20.7929L18.4645 1.67167C18.2692 1.47641 18.2692 1.15982 18.4645 0.964562C18.6597 0.7693 18.9763 0.7693 19.1716 0.964562Z" fill="#0071FF"/>
<path fill-rule="evenodd" clip-rule="evenodd" d="M3.82843 17.0354L0.646447 13.8535C0.451186 13.6582 0.451186 13.3416 0.646447 13.1463L3.82843 9.96437C4.02369 9.76911 4.34027 9.76911 4.53553 9.96437C4.7308 10.1596 4.7308 10.4762 4.53553 10.6715L2.20711 12.9999L22 12.9999L22 13.9999L2.20711 13.9999L4.53553 16.3283C4.7308 16.5236 4.7308 16.8402 4.53553 17.0354C4.34027 17.2307 4.02369 17.2307 3.82843 17.0354Z" fill="#0071FF"/>
</svg>
