<svg width="182" height="182" viewBox="0 0 182 182" fill="none" xmlns="http://www.w3.org/2000/svg">
<g filter="url(#filter0_ddd)">
<rect x="24" y="8" width="134" height="134" rx="18" fill="url(#paint0_linear)"/>
</g>
<g filter="url(#filter1_d)">
<rect x="60" y="42" width="61" height="71" fill="#FEFFFE"/>
</g>
<path d="M121 42H60L121 113V42Z" fill="#E4F1FF"/>
<rect x="72" y="53" width="13" height="13" fill="#8386D4"/>
<rect x="72" y="77" width="37" height="2" fill="#8386D4"/>
<rect x="72" y="88" width="37" height="2" fill="#8386D4"/>
<rect x="72" y="99" width="37" height="2" fill="#8386D4"/>
<g filter="url(#filter2_d)">
<rect x="108" y="97" width="25" height="25" rx="12.5" fill="#33DE21"/>
</g>
<path d="M125.694 109.482C125.368 109.146 125.295 108.636 125.514 108.221C125.671 107.926 125.682 107.574 125.544 107.269C125.406 106.964 125.134 106.741 124.81 106.667C124.356 106.563 124.021 106.174 123.983 105.705C123.956 105.371 123.777 105.068 123.497 104.887C123.218 104.706 122.87 104.666 122.557 104.781C122.119 104.942 121.629 104.796 121.346 104.423C121.145 104.157 120.831 104 120.499 104C120.166 104 119.853 104.157 119.651 104.423C119.37 104.797 118.88 104.942 118.442 104.782C118.129 104.667 117.782 104.707 117.502 104.888C117.223 105.069 117.042 105.372 117.016 105.706C116.978 106.174 116.644 106.564 116.19 106.667C115.865 106.741 115.594 106.964 115.456 107.269C115.318 107.574 115.329 107.926 115.486 108.221C115.705 108.636 115.632 109.146 115.306 109.482C115.073 109.721 114.964 110.056 115.011 110.387C115.058 110.719 115.256 111.01 115.547 111.173C115.954 111.402 116.167 111.871 116.071 112.331C116.004 112.659 116.091 113 116.309 113.253C116.527 113.507 116.85 113.643 117.181 113.622C117.647 113.593 118.076 113.871 118.243 114.31C118.361 114.623 118.619 114.862 118.938 114.956C119.257 115.051 119.601 114.99 119.869 114.791C120.244 114.513 120.756 114.513 121.131 114.791C121.399 114.99 121.743 115.051 122.062 114.956C122.381 114.862 122.638 114.623 122.758 114.31C122.924 113.871 123.354 113.592 123.819 113.622C124.151 113.643 124.473 113.507 124.691 113.253C124.908 113 124.996 112.659 124.929 112.331C124.834 111.871 125.046 111.402 125.453 111.173C125.743 111.009 125.941 110.719 125.989 110.387C126.037 110.056 125.927 109.721 125.694 109.482V109.482ZM119.927 111.991L117.865 109.974L118.716 109.116L119.927 110.274L122.513 107.601L123.364 108.459L119.927 111.991Z" fill="white"/>
<defs>
<filter id="filter0_ddd" x="0" y="0" width="182" height="182" filterUnits="userSpaceOnUse" color-interpolation-filters="sRGB">
<feFlood flood-opacity="0" result="BackgroundImageFix"/>
<feColorMatrix in="SourceAlpha" type="matrix" values="0 0 0 0 0 0 0 0 0 0 0 0 0 0 0 0 0 0 127 0" result="hardAlpha"/>
<feOffset/>
<feGaussianBlur stdDeviation="0.5"/>
<feColorMatrix type="matrix" values="0 0 0 0 0 0 0 0 0 0.443137 0 0 0 0 1 0 0 0 0.08 0"/>
<feBlend mode="normal" in2="BackgroundImageFix" result="effect1_dropShadow"/>
<feColorMatrix in="SourceAlpha" type="matrix" values="0 0 0 0 0 0 0 0 0 0 0 0 0 0 0 0 0 0 127 0" result="hardAlpha"/>
<feOffset dy="2"/>
<feGaussianBlur stdDeviation="3"/>
<feColorMatrix type="matrix" values="0 0 0 0 0 0 0 0 0 0.443137 0 0 0 0 1 0 0 0 0.08 0"/>
<feBlend mode="normal" in2="effect1_dropShadow" result="effect2_dropShadow"/>
<feColorMatrix in="SourceAlpha" type="matrix" values="0 0 0 0 0 0 0 0 0 0 0 0 0 0 0 0 0 0 127 0" result="hardAlpha"/>
<feOffset dy="16"/>
<feGaussianBlur stdDeviation="12"/>
<feColorMatrix type="matrix" values="0 0 0 0 0 0 0 0 0 0.443137 0 0 0 0 1 0 0 0 0.08 0"/>
<feBlend mode="normal" in2="effect2_dropShadow" result="effect3_dropShadow"/>
<feBlend mode="normal" in="SourceGraphic" in2="effect3_dropShadow" result="shape"/>
</filter>
<filter id="filter1_d" x="60" y="42" width="62" height="74" filterUnits="userSpaceOnUse" color-interpolation-filters="sRGB">
<feFlood flood-opacity="0" result="BackgroundImageFix"/>
<feColorMatrix in="SourceAlpha" type="matrix" values="0 0 0 0 0 0 0 0 0 0 0 0 0 0 0 0 0 0 127 0" result="hardAlpha"/>
<feOffset dx="1" dy="3"/>
<feComposite in2="hardAlpha" operator="out"/>
<feColorMatrix type="matrix" values="0 0 0 0 0.25098 0 0 0 0 0.254902 0 0 0 0 1 0 0 0 1 0"/>
<feBlend mode="normal" in2="BackgroundImageFix" result="effect1_dropShadow"/>
<feBlend mode="normal" in="SourceGraphic" in2="effect1_dropShadow" result="shape"/>
</filter>
<filter id="filter2_d" x="108" y="97" width="25" height="26" filterUnits="userSpaceOnUse" color-interpolation-filters="sRGB">
<feFlood flood-opacity="0" result="BackgroundImageFix"/>
<feColorMatrix in="SourceAlpha" type="matrix" values="0 0 0 0 0 0 0 0 0 0 0 0 0 0 0 0 0 0 127 0" result="hardAlpha"/>
<feOffset dy="1"/>
<feComposite in2="hardAlpha" operator="out"/>
<feColorMatrix type="matrix" values="0 0 0 0 0.25098 0 0 0 0 0.254902 0 0 0 0 1 0 0 0 1 0"/>
<feBlend mode="normal" in2="BackgroundImageFix" result="effect1_dropShadow"/>
<feBlend mode="normal" in="SourceGraphic" in2="effect1_dropShadow" result="shape"/>
</filter>
<linearGradient id="paint0_linear" x1="24" y1="8" x2="158" y2="150.5" gradientUnits="userSpaceOnUse">
<stop stop-color="#0071FF"/>
<stop offset="1" stop-color="#00BEFF"/>
</linearGradient>
</defs>
</svg>
