<svg width="12" height="12" viewBox="0 0 12 12" fill="none" xmlns="http://www.w3.org/2000/svg">
<path d="M1.71429 1.71429V6.85714H2.57143V8.57143H0.857143C0.383756 8.57143 0 8.18767 0 7.71429V0.857143C0 0.383756 0.383756 0 0.857143 0H7.71429C8.18767 0 8.57143 0.383756 8.57143 0.857143V2.57143H6.85714V1.71429H1.71429Z" fill="#8D9091"/>
<path fill-rule="evenodd" clip-rule="evenodd" d="M3.42857 4.28571C3.42857 3.81233 3.81233 3.42857 4.28571 3.42857H11.1429C11.6162 3.42857 12 3.81233 12 4.28571V11.1429C12 11.6162 11.6162 12 11.1429 12H4.28571C3.81233 12 3.42857 11.6162 3.42857 11.1429V4.28571ZM5.14286 10.2857V5.14286H10.2857V10.2857H5.14286Z" fill="#8D9091"/>
</svg>
