<svg width="33" height="33" viewBox="0 0 33 33" fill="none" xmlns="http://www.w3.org/2000/svg">
<path d="M31.0078 1.96875H27.2344V0.328125C27.2344 0.147656 27.0867 0 26.9062 0H5.90625C5.72578 0 5.57812 0.147656 5.57812 0.328125V1.96875H1.80469C1.32605 1.96875 0.867025 2.15889 0.528581 2.49733C0.190136 2.83578 0 3.2948 0 3.77344V9.84375C0 13.1947 2.46094 15.9797 5.66836 16.4883C6.3 21.2543 10.1309 25.0113 14.9297 25.5322V29.8471H6.89062C6.16465 29.8471 5.57812 30.4336 5.57812 31.1596V32.4844C5.57812 32.6648 5.72578 32.8125 5.90625 32.8125H26.9062C27.0867 32.8125 27.2344 32.6648 27.2344 32.4844V31.1596C27.2344 30.4336 26.6479 29.8471 25.9219 29.8471H17.8828V25.5322C22.6816 25.0113 26.5125 21.2543 27.1441 16.4883C30.3516 15.9797 32.8125 13.1947 32.8125 9.84375V3.77344C32.8125 3.2948 32.6224 2.83578 32.2839 2.49733C31.9455 2.15889 31.4864 1.96875 31.0078 1.96875ZM5.57812 13.4367C4.05645 12.9486 2.95312 11.5213 2.95312 9.84375V4.92188H5.57812V13.4367ZM29.8594 9.84375C29.8594 11.5254 28.7561 12.9527 27.2344 13.4367V4.92188H29.8594V9.84375Z" fill="white"/>
</svg>
