<svg width="26" height="27" viewBox="0 0 26 27" fill="none" xmlns="http://www.w3.org/2000/svg">
<g clip-path="url(#clip0)">
<path d="M25.5925 16.5879C23.8563 23.5522 16.8025 27.7906 9.83733 26.0539C2.87507 24.3177 -1.3633 17.2635 0.373706 10.2997C2.10919 3.33456 9.16295 -0.904124 16.126 0.83212C23.0906 2.56836 27.3288 9.62333 25.5923 16.588L25.5924 16.5879H25.5925Z" fill="#F7931A"/>
<path d="M18.7331 11.5719C18.9918 9.84192 17.6747 8.91197 15.8737 8.2916L16.4579 5.94814L15.0314 5.59268L14.4626 7.87444C14.0876 7.78091 13.7025 7.69277 13.3197 7.6054L13.8926 5.30858L12.467 4.95312L11.8824 7.29582C11.572 7.22516 11.2672 7.15533 10.9715 7.08175L10.9731 7.07437L9.0059 6.58313L8.62642 8.10676C8.62642 8.10676 9.68479 8.34936 9.66249 8.36429C10.2402 8.50847 10.3446 8.89087 10.3273 9.19397L9.66173 11.8637C9.70151 11.8738 9.7531 11.8884 9.81004 11.9113C9.76244 11.8995 9.7118 11.8866 9.65925 11.874L8.72638 15.614C8.65578 15.7895 8.47659 16.0528 8.07271 15.9528C8.08701 15.9735 7.03589 15.6941 7.03589 15.6941L6.32764 17.327L8.18404 17.7898C8.52939 17.8764 8.86782 17.967 9.20111 18.0522L8.61079 20.4226L10.0357 20.778L10.6203 18.4328C11.0095 18.5385 11.3873 18.636 11.7571 18.7279L11.1745 21.062L12.6011 21.4175L13.1913 19.0516C15.6239 19.5119 17.453 19.3263 18.2228 17.1261C18.8432 15.3546 18.192 14.3329 16.9122 13.6666C17.8443 13.4516 18.5464 12.8385 18.7336 11.5721L18.7332 11.5718L18.7331 11.5719ZM15.4738 16.1423C15.0329 17.9138 12.0504 16.9562 11.0834 16.716L11.8667 13.5758C12.8337 13.8172 15.9345 14.2949 15.4739 16.1423H15.4738ZM15.915 11.5463C15.5128 13.1576 13.0304 12.339 12.2251 12.1382L12.9353 9.29018C13.7406 9.49091 16.3339 9.86556 15.9151 11.5463H15.915Z" fill="white"/>
</g>
<defs>
<clipPath id="clip0">
<rect width="26" height="26" fill="white" transform="translate(0 0.424316)"/>
</clipPath>
</defs>
</svg>
