<svg width="16" height="9" viewBox="0 0 16 9" fill="none" xmlns="http://www.w3.org/2000/svg">
<path d="M15.7252 1.49587C15.7096 1.23692 15.6337 0.985215 15.5033 0.760939C15.3877 0.529828 15.1821 0.349561 14.9417 0.257117C14.6966 0.13496 14.425 0.0754096 14.1513 0.0837833H3.89458L3.15965 2.28627H12.4526L10.9851 6.78832H1.69441L0.959473 8.99081H11.2647C11.5718 8.98192 11.8754 8.92338 12.1637 8.81747C12.4526 8.65338 12.7831 8.48698 13.0628 8.25587C13.3358 8.04064 13.5825 7.79395 13.7977 7.52094C13.9756 7.25344 14.1273 6.9694 14.2507 6.67276L15.6119 2.39258C15.7358 2.11097 15.7751 1.79943 15.7252 1.49587V1.49587Z" fill="#2573C2"/>
<path d="M6.82314 3.51587H1.35505L0.620117 5.55196H6.14367L6.82314 3.51587Z" fill="#2573C2"/>
</svg>
