<svg width="15" height="17" viewBox="0 0 15 17" fill="none" xmlns="http://www.w3.org/2000/svg">
<path fill-rule="evenodd" clip-rule="evenodd" d="M13.028 0.5C13.932 0.5 14.668 1.236 14.668 2.148V16.5L12.948 14.98L11.98 14.084L10.956 13.132L11.38 14.612H2.30797C1.40397 14.612 0.667969 13.876 0.667969 12.964V2.148C0.667969 1.236 1.40397 0.5 2.30797 0.5H13.028V0.5ZM9.93997 10.948C11.708 10.892 12.388 9.732 12.388 9.732C12.388 7.156 11.236 5.068 11.236 5.068C10.084 4.204 8.98797 4.228 8.98797 4.228L8.87597 4.356C10.236 4.772 10.868 5.372 10.868 5.372C10.036 4.916 9.21997 4.692 8.45997 4.604C7.88397 4.54 7.33197 4.556 6.84397 4.62L6.70797 4.636C6.42797 4.66 5.74797 4.764 4.89197 5.14C4.59597 5.276 4.41997 5.372 4.41997 5.372C4.41997 5.372 5.08397 4.74 6.52397 4.324L6.44397 4.228C6.44397 4.228 5.34797 4.204 4.19597 5.068C4.19597 5.068 3.04397 7.156 3.04397 9.732C3.04397 9.732 3.71597 10.892 5.48397 10.948C5.48397 10.948 5.77997 10.588 6.01997 10.284C5.00397 9.98 4.61997 9.34 4.61997 9.34L4.84397 9.476L4.87597 9.5L4.9073 9.518L4.91664 9.522L4.94797 9.54C5.14797 9.652 5.34797 9.74 5.53197 9.812C5.85997 9.94 6.25197 10.068 6.70797 10.156C7.30797 10.268 8.01197 10.308 8.77997 10.164C9.15597 10.1 9.53997 9.988 9.93997 9.82C10.22 9.716 10.532 9.564 10.86 9.348C10.86 9.348 10.46 10.004 9.41197 10.3C9.65197 10.604 9.93997 10.948 9.93997 10.948V10.948ZM6.21997 7.212C5.76397 7.212 5.40397 7.612 5.40397 8.1C5.40397 8.588 5.77197 8.988 6.21997 8.988C6.67597 8.988 7.03597 8.588 7.03597 8.1C7.04397 7.612 6.67597 7.212 6.21997 7.212ZM9.13997 7.212C8.68397 7.212 8.32397 7.612 8.32397 8.1C8.32397 8.588 8.69197 8.988 9.13997 8.988C9.59597 8.988 9.95597 8.588 9.95597 8.1C9.95597 7.612 9.59597 7.212 9.13997 7.212Z" fill="#3F87D9"/>
</svg>
