<svg width="160" height="155" viewBox="0 0 160 155" fill="none" xmlns="http://www.w3.org/2000/svg">
<path d="M83.5343 154.468V83.7931L119.012 119.131H48.1543V47.9656L83.5832 12.6766" stroke="#0071FF" stroke-width="2"/>
<path fill-rule="evenodd" clip-rule="evenodd" d="M83.5388 166.412C90.5948 166.412 96.3149 160.715 96.3149 153.687C96.3149 146.658 90.5948 140.961 83.5388 140.961C76.4828 140.961 70.7627 146.658 70.7627 153.687C70.7627 160.715 76.4828 166.412 83.5388 166.412Z" fill="#0071FF"/>
<path fill-rule="evenodd" clip-rule="evenodd" d="M48.157 131.172C55.213 131.172 60.9331 125.475 60.9331 118.446C60.9331 111.418 55.213 105.721 48.157 105.721C41.1009 105.721 35.3809 111.418 35.3809 118.446C35.3809 125.475 41.1009 131.172 48.157 131.172Z" fill="#0071FF"/>
<path fill-rule="evenodd" clip-rule="evenodd" d="M118.92 131.172C125.976 131.172 131.696 125.475 131.696 118.446C131.696 111.418 125.976 105.721 118.92 105.721C111.864 105.721 106.144 111.418 106.144 118.446C106.144 125.475 111.864 131.172 118.92 131.172Z" fill="#0071FF"/>
<path fill-rule="evenodd" clip-rule="evenodd" d="M12.7761 95.9319C19.8321 95.9319 25.5522 90.2344 25.5522 83.2062C25.5522 76.1781 19.8321 70.4806 12.7761 70.4806C5.72005 70.4806 0 76.1781 0 83.2062C0 90.2344 5.72005 95.9319 12.7761 95.9319Z" fill="#161E2B"/>
<path fill-rule="evenodd" clip-rule="evenodd" d="M83.5388 95.9318C90.5948 95.9318 96.3149 90.2343 96.3149 83.2061C96.3149 76.1779 90.5948 70.4805 83.5388 70.4805C76.4828 70.4805 70.7627 76.1779 70.7627 83.2061C70.7627 90.2343 76.4828 95.9318 83.5388 95.9318Z" fill="#0071FF"/>
<path fill-rule="evenodd" clip-rule="evenodd" d="M154.298 95.9318C161.354 95.9318 167.074 90.2343 167.074 83.2061C167.074 76.1779 161.354 70.4805 154.298 70.4805C147.242 70.4805 141.521 76.1779 141.521 83.2061C141.521 90.2343 147.242 95.9318 154.298 95.9318Z" fill="#EAEAEA"/>
<path fill-rule="evenodd" clip-rule="evenodd" d="M118.92 60.6916C125.976 60.6916 131.696 54.9941 131.696 47.9659C131.696 40.9378 125.976 35.2403 118.92 35.2403C111.864 35.2403 106.144 40.9378 106.144 47.9659C106.144 54.9941 111.864 60.6916 118.92 60.6916Z" fill="#161E2B"/>
<path fill-rule="evenodd" clip-rule="evenodd" d="M48.157 60.6916C55.213 60.6916 60.9331 54.9941 60.9331 47.9659C60.9331 40.9378 55.213 35.2403 48.157 35.2403C41.1009 35.2403 35.3809 40.9378 35.3809 47.9659C35.3809 54.9941 41.1009 60.6916 48.157 60.6916Z" fill="#0071FF"/>
<path fill-rule="evenodd" clip-rule="evenodd" d="M83.5388 25.4513C90.5948 25.4513 96.3149 19.7538 96.3149 12.7256C96.3149 5.69746 90.5948 0 83.5388 0C76.4828 0 70.7627 5.69746 70.7627 12.7256C70.7627 19.7538 76.4828 25.4513 83.5388 25.4513Z" fill="#0071FF"/>
</svg>
