<svg width="67" height="20" viewBox="0 0 67 20" fill="none" xmlns="http://www.w3.org/2000/svg">
<path d="M1 19C1.1326 18.5234 2.15119 11.9197 3.54902 14.1011C4.04552 14.876 4.35719 15.5681 4.96514 16.2006C6.3992 17.6927 11.0738 10.7407 11.8864 12.5725C12.2481 13.3878 13.2432 14.6056 13.9398 15.1693C14.9719 16.0045 18.0685 11.5381 18.5953 10.3809C19.2684 8.90256 18.1511 7.63862 19.7282 5.99775C21.0867 4.58441 21.2701 6.63284 22.1887 7.39743C22.9634 8.04225 24.669 5.68198 25.4635 5.15058C26.5026 4.45558 25.9993 4.68756 26.6495 5.73992C27.4006 6.95542 29.4716 4.75095 30.3491 4.30341C31.3002 3.81834 32.6506 6.61838 33.4823 7.21326C34.6435 8.04387 34.4302 7.26614 35.0931 6.29242C35.3659 5.89185 36.3458 7.06831 36.6863 7.19484C37.7505 7.59026 38.2211 2.86168 39.6247 2.27756C42.0228 1.27956 44.6056 0.806589 44.9706 4.41391C45.0425 5.12448 46.2536 1.82109 46.723 1.43039C48.6993 -0.214494 50.3075 3.2996 51.4848 4.52441C51.9437 5.00185 52.3003 5.07691 52.9363 5.07691C53.3026 5.07691 53.674 5.09748 53.8214 4.67174C53.8591 4.56262 53.8463 3.5869 54.14 3.82457C54.2477 3.91173 54.8347 4.60964 54.8657 4.56124C55.2618 3.94314 56.6315 3.04365 57.3971 3.0879C58.0006 3.12278 59.0278 4.1215 59.4681 4.57966C60.4969 5.64994 62.2604 5.63228 63.5926 5.92408C65.1656 6.26863 65.1707 7.94845 66 9.38644" stroke="#E9973C" stroke-width="2" stroke-linecap="round" stroke-linejoin="round"/>
</svg>
