<svg width="32" height="32" viewBox="0 0 32 32" fill="none" xmlns="http://www.w3.org/2000/svg">
<path d="M16.0005 31.9995C14.3779 31.9995 13.0547 30.6774 13.0547 29.0537V27.0454C13.0547 26.5277 13.4744 26.1079 13.9922 26.1079H18.0089C18.5266 26.1079 18.9464 26.5277 18.9464 27.0454V29.0537C18.9464 30.678 17.6248 31.9995 16.0005 31.9995Z" fill="#153D53"/>
<path d="M18.9459 29.0537V27.0454C18.9459 26.5277 18.5261 26.1079 18.0084 26.1079H16V31.9995C17.6243 31.9995 18.9459 30.678 18.9459 29.0537Z" fill="#111310"/>
<path d="M19.0128 27.9834H12.9878C11.3652 27.9834 10.042 26.6612 10.042 25.0376V23.0293C10.042 22.5115 10.4617 22.0918 10.9795 22.0918H21.0212C21.5389 22.0918 21.9587 22.5115 21.9587 23.0293V25.0376C21.9586 26.6603 20.6364 27.9834 19.0128 27.9834V27.9834Z" fill="#3A5E88"/>
<path d="M21.9583 25.0376V23.0293C21.9583 22.5115 21.5386 22.0918 21.0208 22.0918H16V27.9835H19.0125C20.6361 27.9834 21.9583 26.6603 21.9583 25.0376V25.0376Z" fill="#153D53"/>
<path d="M10.0433 23.0292C10.0433 21.4371 9.39409 19.8804 8.26221 18.7582C6.1729 16.6847 5.02246 13.9222 5.02246 10.9792C5.02246 4.92525 9.94771 0 16.0016 0C22.0556 0 26.9808 4.92525 26.9808 10.9792C26.9808 13.9197 25.8316 16.6828 23.7448 18.7595C22.6124 19.8812 21.9638 21.4369 21.9638 23.0292H10.0433Z" fill="#FDE000"/>
<path d="M23.7431 18.7594C25.8299 16.6827 26.9791 13.9196 26.9791 10.9791C26.9792 4.92525 22.0539 0 16 0V23.0292H21.9621C21.9621 21.4368 22.6107 19.8811 23.7431 18.7594V18.7594Z" fill="#FBAF02"/>
<path d="M13.6352 18.8749C13.2849 18.7298 13.0564 18.3879 13.0564 18.0088V13.9254H10.9814C10.6565 13.9254 10.3548 13.7571 10.1839 13.4808C10.0131 13.2044 9.99764 12.8593 10.1429 12.5686L13.1554 6.54364C13.3142 6.22602 13.6388 6.02539 13.9939 6.02539H20.019C20.3438 6.02539 20.6456 6.19364 20.8165 6.47002C20.9873 6.74639 21.0028 7.09152 20.8575 7.38214L19.5276 10.0421H21.0231C21.4023 10.0421 21.7441 10.2705 21.8893 10.6208C22.0343 10.9711 21.9541 11.3744 21.686 11.6425L14.6569 18.6716C14.369 18.9596 13.9593 19.0091 13.6352 18.8749V18.8749Z" fill="#FFFF71"/>
<path d="M21.8869 10.6203C21.7418 10.27 21.4 10.0416 21.0208 10.0416H19.5252L20.8551 7.38165C21.0004 7.09103 20.9849 6.7459 20.8141 6.46953C20.6433 6.19315 20.3415 6.0249 20.0166 6.0249H16V17.3257L21.6837 11.642C21.9518 11.3739 22.032 10.9707 21.8869 10.6203Z" fill="#FDE000"/>
</svg>
