<svg width="28" height="21" viewBox="0 0 28 21" fill="none" xmlns="http://www.w3.org/2000/svg">
<path d="M26.25 0H1.75C1.28587 0 0.840752 0.184374 0.512563 0.512563C0.184374 0.840752 0 1.28587 0 1.75V19.25C0 19.7141 0.184374 20.1592 0.512563 20.4874C0.840752 20.8156 1.28587 21 1.75 21H26.25C26.7141 21 27.1592 20.8156 27.4874 20.4874C27.8156 20.1592 28 19.7141 28 19.25V1.75C28 1.28587 27.8156 0.840752 27.4874 0.512563C27.1592 0.184374 26.7141 0 26.25 0V0ZM24.9025 19.25H3.2025L9.3275 12.915L8.0675 11.6988L1.75 18.235V3.08L12.6263 13.9037C12.9541 14.2297 13.3977 14.4126 13.86 14.4126C14.3223 14.4126 14.7659 14.2297 15.0938 13.9037L26.25 2.80875V18.1212L19.81 11.6813L18.5762 12.915L24.9025 19.25ZM2.89625 1.75H24.8325L13.86 12.6612L2.89625 1.75Z" fill="#0071FF"/>
</svg>
