<svg width="16" height="14" viewBox="0 0 16 14" fill="none" xmlns="http://www.w3.org/2000/svg">
<path fill-rule="evenodd" clip-rule="evenodd" d="M1.89733 3.09133C1.91733 2.89467 1.842 2.70067 1.69533 2.56867L0.202 0.768667V0.5H4.84067L8.426 8.36333L11.578 0.5H16V0.768667L14.7227 1.99333C14.6127 2.07733 14.558 2.21533 14.5807 2.352V11.3507C14.558 11.4867 14.6127 11.6247 14.7227 11.7087L15.97 12.9333V13.202H9.69533V12.9333L10.988 11.6787C11.1147 11.552 11.1147 11.5147 11.1147 11.3207V4.04733L7.522 13.1727H7.03667L2.85333 4.04733V10.1633C2.81867 10.42 2.904 10.6793 3.08467 10.8647L4.76533 12.9033V13.1727H0V12.9033L1.68067 10.8647C1.86067 10.6787 1.94067 10.418 1.89733 10.1633V3.09133V3.09133Z" fill="#3F87D9"/>
</svg>
