<svg width="16" height="12" viewBox="0 0 16 12" fill="none" xmlns="http://www.w3.org/2000/svg">
<path d="M15.529 0.559307C14.5592 0.154146 13.5887 2.99515e-08 12.6187 2.99515e-08C9.5395 -0.000248993 6.4605 1.55241 3.38125 1.55241C2.609 1.55241 1.83725 1.45479 1.065 1.21075C0.97825 1.18336 0.89125 1.17041 0.80625 1.17041C0.376 1.17041 0 1.50211 0 1.96255V9.86307C0 10.1776 0.18075 10.4757 0.471 10.5967C1.44075 11.0021 2.41125 11.1562 3.38125 11.1562C6.4605 11.1562 9.53975 9.60359 12.619 9.60359C13.3912 9.60359 14.163 9.70121 14.9352 9.94525C15.022 9.97264 15.109 9.98559 15.194 9.98559C15.6242 9.98559 16.0002 9.65389 16.0002 9.19345V1.29318C16 0.978413 15.8192 0.680581 15.529 0.559307V0.559307ZM1.2 2.49571C1.703 2.62122 2.228 2.68422 2.768 2.71809C2.621 3.44997 1.975 4.00156 1.2 4.00156V2.49571ZM1.2 9.59288V8.40305C2.05925 8.40305 2.7545 9.08213 2.79275 9.93205C2.2295 9.88698 1.703 9.77492 1.2 9.59288V9.59288ZM8 7.96875C6.89525 7.96875 6 6.8982 6 5.57812C6 4.2578 6.8955 3.1875 8 3.1875C9.1045 3.1875 10 4.2578 10 5.57812C10 6.8987 9.10425 7.96875 8 7.96875ZM14.8 8.66054C14.362 8.55122 13.9072 8.48996 13.442 8.45036C13.5887 7.80091 14.1295 7.30784 14.8 7.22317V8.66054ZM14.8 2.78084C14.0277 2.68348 13.4285 2.04125 13.4047 1.24811C13.8932 1.30214 14.357 1.40325 14.8 1.56337V2.78084Z" fill="#0071FF"/>
</svg>
