<svg width="20" height="20" viewBox="0 0 20 20" fill="none" xmlns="http://www.w3.org/2000/svg">
<path d="M10 0C4.4854 0 0 4.4854 0 10C0 15.5146 4.4854 20 10 20C15.5146 20 20 15.5146 20 10C20 4.4854 15.5146 0 10 0ZM10.5012 1.4156C13.0648 1.5622 15.3222 2.8262 16.7984 4.7292C16.4088 4.7192 16.021 4.7168 15.6348 4.7226C14.9644 4.73371 14.2946 4.7692 13.6268 4.829C13.504 4.57552 13.3123 4.36173 13.0737 4.21211C12.835 4.0625 12.5591 3.9831 12.2774 3.983C12.2076 3.98301 12.1379 3.98789 12.0688 3.9976C11.5991 3.10595 11.0756 2.24369 10.5012 1.4156V1.4156ZM9.2856 1.4316C10.013 2.4254 10.6436 3.4342 11.1832 4.457C10.9825 4.6711 10.849 4.93937 10.7992 5.2286C9.8662 5.4104 8.94302 5.63936 8.0332 5.9146C7.91999 5.76153 7.77867 5.63142 7.6168 5.5312C7.9942 4.1842 8.5222 2.8194 9.1972 1.4382C9.2266 1.4356 9.2562 1.4342 9.2856 1.4316V1.4316ZM7.9976 1.636C7.4336 2.869 6.9836 4.0974 6.6488 5.318C6.44627 5.3423 6.25083 5.40765 6.07442 5.51006C5.89801 5.61247 5.74433 5.74978 5.6228 5.9136C4.72041 5.6258 3.80641 5.37571 2.8832 5.164C4.08814 3.39111 5.91235 2.13273 7.9976 1.636V1.636ZM16.2222 5.7196C16.6406 5.7222 17.061 5.7356 17.4836 5.7576C17.9887 6.64729 18.3299 7.62048 18.491 8.6308C17.281 8.8276 16.103 9.1002 14.9562 9.4438C14.8324 9.2905 14.6796 9.16309 14.5065 9.06885C14.3335 8.97462 14.1436 8.91541 13.9476 8.8946C13.7549 8.12713 13.52 7.37086 13.2442 6.6292C13.4922 6.41992 13.6657 6.13584 13.7386 5.8196C14.5584 5.7484 15.3858 5.7142 16.2222 5.7196V5.7196ZM2.3464 6.072C3.3668 6.2966 4.3624 6.5592 5.329 6.8678C5.32906 6.8698 5.32913 6.8718 5.3292 6.8738C4.0276 7.4084 2.7478 8.0388 1.4894 8.7612C1.62401 7.82349 1.91363 6.91469 2.3464 6.072V6.072ZM10.9652 6.2088C11.0949 6.44321 11.2849 6.63863 11.5156 6.77474C11.7464 6.91085 12.0093 6.98269 12.2772 6.9828C12.2907 6.98265 12.3041 6.98231 12.3176 6.9818C12.5791 7.68195 12.8018 8.39597 12.9848 9.1206C12.9097 9.16823 12.8389 9.22244 12.7734 9.2826C11.363 8.36338 9.87409 7.57076 8.324 6.914C8.32522 6.89695 8.32616 6.87988 8.3268 6.8628C9.1948 6.60066 10.0754 6.38238 10.9654 6.2088H10.9652ZM5.7012 7.797C5.81149 7.92243 5.94195 8.02855 6.0872 8.111C5.8408 10.0392 5.8954 11.9404 6.2714 13.8002C5.38529 14.4482 4.5316 15.1393 3.7134 15.8712C2.2784 14.3354 1.4 12.2732 1.4 10C1.4 9.9906 1.4008 9.9816 1.4008 9.9722C2.8102 9.1254 4.2428 8.3982 5.7012 7.7972V7.797ZM7.9254 7.8288C9.4533 8.47447 10.9194 9.25748 12.3058 10.1682C12.295 10.2404 12.2896 10.3132 12.2894 10.3862C12.2894 10.3893 12.2894 10.3925 12.2894 10.3956C10.4974 11.1406 8.7866 12.0716 7.155 13.1784C6.873 11.5788 6.843 9.9484 7.0536 8.2896C7.38783 8.23864 7.69503 8.07626 7.9254 7.8288V7.8288ZM18.5906 9.6276C18.5958 9.751 18.6 9.875 18.6 9.9998C18.6013 11.2179 18.3434 12.4223 17.8434 13.533C17.0016 12.6366 16.1018 11.7967 15.1496 11.0186C15.2413 10.8214 15.2891 10.6067 15.2896 10.3892C16.3729 10.0664 17.4754 9.81201 18.5906 9.6276V9.6276ZM12.627 11.3334C12.8429 11.5984 13.1427 11.7817 13.477 11.853C13.6958 13.8348 13.629 15.8662 13.2906 17.949C12.2471 18.38 11.129 18.6012 10 18.6C9.7046 18.6 9.4126 18.5852 9.125 18.5562C8.3226 17.1434 7.7432 15.7022 7.3792 14.2348C9.0448 13.0702 10.7918 12.0998 12.627 11.3336V11.3334ZM14.4632 11.7454C15.491 12.5829 16.4561 13.4944 17.3508 14.4728C16.616 15.6784 15.5963 16.685 14.3812 17.404C14.6382 15.4836 14.6692 13.5954 14.4632 11.7458V11.7454ZM6.5212 14.8564C6.8392 16.035 7.288 17.1958 7.8718 18.335C6.60768 18.0136 5.43368 17.4076 4.4394 16.5634C5.1188 15.9594 5.8124 15.3894 6.521 14.8564H6.5212Z" fill="#0071FF"/>
</svg>
