<svg width="50" height="193" viewBox="0 0 50 193" fill="none" xmlns="http://www.w3.org/2000/svg">
<path d="M25 24L25 36C31.8889 36 37.5 41.3867 37.5 48L50 48C50 34.72 38.7778 24 25 24Z" fill="#0071FF"/>
<path d="M25 168L25 180C31.8889 180 37.5 185.387 37.5 192L50 192C50 178.72 38.7778 168 25 168Z" fill="#0071FF"/>
<path d="M25.4375 48.8744L25.4375 36.6559C18.7038 36.6559 13.2191 31.1712 13.2191 24.4375L1.00062 24.4375C1.00062 37.9592 11.9158 48.8744 25.4375 48.8744Z" fill="black"/>
<path d="M25.4375 192.874L25.4375 180.656C18.7038 180.656 13.2191 175.171 13.2191 168.437L1.00062 168.437C1.00062 181.959 11.9158 192.874 25.4375 192.874Z" fill="black"/>
<path d="M49.875 0L37.6566 -5.34085e-07C37.6566 6.73372 32.1718 12.2184 25.4381 12.2184L25.4381 24.4369C38.9056 24.4369 49.875 13.5217 49.875 0Z" fill="black"/>
<path d="M49.875 144L37.6566 144C37.6566 150.734 32.1718 156.218 25.4381 156.218L25.4381 168.437C38.9056 168.437 49.875 157.522 49.875 144Z" fill="black"/>
<path d="M1.00062 24.4369L13.2191 24.4369C13.2191 17.7032 18.7038 12.2184 25.4375 12.2184L25.4375 0C11.9158 -5.91054e-07 1.00062 10.9151 1.00062 24.4369Z" fill="#0071FF"/>
<path d="M1.00062 168.437L13.2191 168.437C13.2191 161.703 18.7038 156.218 25.4375 156.218L25.4375 144C11.9158 144 1.00062 154.915 1.00062 168.437Z" fill="#0071FF"/>
<path d="M49.7148 73.2316L37.5361 73.2316C37.5361 66.5197 32.0962 61.0528 25.3573 61.0528L25.3573 48.874C38.8081 48.874 49.7148 59.7808 49.7148 73.2316Z" fill="#0071FF"/>
<path d="M25.3573 97.5885L25.3573 85.4097C32.0692 85.4097 37.5361 79.9699 37.5361 73.231L49.7148 73.231C49.7148 86.6817 38.8081 97.5885 25.3573 97.5885Z" fill="#0071FF"/>
<path d="M0.998417 48.874L13.1772 48.874C13.1772 55.5859 18.617 61.0528 25.356 61.0528L25.356 73.2316C11.9052 73.2316 0.998417 62.3248 0.998417 48.874Z" fill="black"/>
<path d="M25.356 73.231L25.356 85.4097C18.6441 85.4097 13.1772 90.8496 13.1772 97.5885L0.998416 97.5885C0.998417 84.1377 11.9052 73.231 25.356 73.231Z" fill="#0071FF"/>
<path d="M25.4381 97.5889L37.6566 97.5889C37.6566 104.323 43.1141 109.807 49.875 109.807L49.875 122.026C36.3804 122.026 25.4381 111.083 25.4381 97.5889Z" fill="black"/>
<path d="M25.4375 97.5889L13.2191 97.5889C13.2191 104.323 7.76149 109.807 1.00062 109.807L1.00062 122.026C14.4952 122.026 25.4375 111.083 25.4375 97.5889Z" fill="black"/>
<path d="M49.875 146.463L37.6566 146.463C37.6566 139.73 32.199 134.245 25.4381 134.245L25.4381 122.026C38.9327 122.026 49.875 132.969 49.875 146.463Z" fill="#0071FF"/>
<path d="M1.00062 122.026L13.2191 122.026C13.2191 128.76 18.6766 134.245 25.4375 134.245L25.4375 146.463C11.9429 146.463 1.00062 135.521 1.00062 122.026Z" fill="black"/>
</svg>
