<svg width="24" height="24" viewBox="0 0 24 24" fill="none" xmlns="http://www.w3.org/2000/svg">
<path fill-rule="evenodd" clip-rule="evenodd" d="M10.6667 10.6667V5.33333C10.6667 4.59695 11.2636 4 12 4C12.7364 4 13.3333 4.59695 13.3333 5.33333V10.6667H18.6667C19.403 10.6667 20 11.2636 20 12C20 12.7364 19.403 13.3333 18.6667 13.3333H13.3333V18.6667C13.3333 19.403 12.7364 20 12 20C11.2636 20 10.6667 19.403 10.6667 18.6667V13.3333H5.33333C4.59695 13.3333 4 12.7364 4 12C4 11.2636 4.59695 10.6667 5.33333 10.6667H10.6667Z" fill="white"/>
</svg>
