<svg width="13" height="13" viewBox="0 0 13 13" fill="none" xmlns="http://www.w3.org/2000/svg">
<path d="M10.6066 0.707119L0.707107 10.6066C0.316582 10.9971 0.316582 11.6303 0.707107 12.0208C1.09763 12.4114 1.7308 12.4114 2.12132 12.0208L12.0208 2.12133C12.4113 1.73081 12.4113 1.09764 12.0208 0.707119C11.6303 0.316595 10.9971 0.316595 10.6066 0.707119Z" fill="black"/>
<path d="M12.0207 10.6066L2.12117 0.707107C1.73064 0.316582 1.09748 0.316582 0.706956 0.707107C0.316431 1.09763 0.316431 1.7308 0.706956 2.12132L10.6065 12.0208C10.997 12.4113 11.6301 12.4113 12.0207 12.0208C12.4112 11.6303 12.4112 10.9971 12.0207 10.6066Z" fill="black"/>
</svg>
