<svg width="16" height="16" viewBox="0 0 16 16" fill="none" xmlns="http://www.w3.org/2000/svg">
<g clip-path="url(#clip0)">
<path d="M16 7.85283C16 6.88016 15.2053 6.0895 14.2287 6.0895C13.752 6.0895 13.32 6.28016 13.002 6.58683C11.7953 5.79283 10.1627 5.2875 8.35467 5.22283L9.34333 2.11016L12.0207 2.7375L12.0167 2.77616C12.0167 3.5715 12.6667 4.21816 13.466 4.21816C14.2647 4.21816 14.914 3.5715 14.914 2.77616C14.914 1.98083 14.264 1.3335 13.466 1.3335C12.8527 1.3335 12.33 1.71616 12.1187 2.25283L9.23267 1.57616C9.10667 1.5455 8.97867 1.61816 8.93933 1.74216L7.83667 5.2135C5.94467 5.23616 4.23067 5.7455 2.97 6.5635C2.654 6.2715 2.23467 6.08883 1.77067 6.08883C0.794 6.08883 0 6.88016 0 7.85283C0 8.4995 0.355333 9.06016 0.878 9.36683C0.843333 9.55483 0.820667 9.74483 0.820667 9.93816C0.820667 12.5455 4.026 14.6668 7.96667 14.6668C11.9073 14.6668 15.1133 12.5455 15.1133 9.93816C15.1133 9.7555 15.094 9.5755 15.0633 9.39816C15.618 9.10016 16 8.5235 16 7.85283V7.85283ZM4.51733 9.0635C4.51733 8.48483 4.99067 8.0135 5.572 8.0135C6.15333 8.0135 6.626 8.48483 6.626 9.0635C6.626 9.64216 6.15333 10.1128 5.572 10.1128C4.99067 10.1128 4.51733 9.64216 4.51733 9.0635V9.0635ZM10.558 12.1762C10.0267 12.7048 9.19267 12.9622 8.00867 12.9622L8 12.9602L7.99133 12.9622C6.80667 12.9622 5.97267 12.7048 5.442 12.1762C5.34533 12.0802 5.34533 11.9235 5.442 11.8275C5.53867 11.7308 5.696 11.7308 5.79267 11.8275C6.226 12.2588 6.94533 12.4682 7.99133 12.4682L8 12.4702L8.00867 12.4682C9.05467 12.4682 9.774 12.2582 10.2073 11.8268C10.304 11.7302 10.4613 11.7308 10.558 11.8268C10.6547 11.9235 10.6547 12.0795 10.558 12.1762ZM10.432 10.1128C9.85067 10.1128 9.378 9.64216 9.378 9.0635C9.378 8.48483 9.85067 8.0135 10.432 8.0135C11.0133 8.0135 11.486 8.48483 11.486 9.0635C11.486 9.64216 11.0133 10.1128 10.432 10.1128Z" fill="#3F87D9"/>
</g>
<defs>
<clipPath id="clip0">
<rect width="16" height="16" fill="white"/>
</clipPath>
</defs>
</svg>
