<svg width="22" height="17" viewBox="0 0 22 17" fill="none" xmlns="http://www.w3.org/2000/svg">
<path d="M8.50006 16.9998V12.7497C6.15074 12.7497 4.25003 10.849 4.25003 8.49969H0C0 13.1983 3.80142 16.9998 8.50006 16.9998Z" fill="#0071FF"/>
<path d="M8.50391 16.9991V12.7491C10.8532 12.7491 12.7539 10.8483 12.7539 8.49902H17.004C17.004 13.1977 13.2026 16.9991 8.50391 16.9991Z" fill="#142438"/>
<path d="M12.7461 0V4.25003C15.0954 4.25003 16.9961 6.15074 16.9961 8.50006H21.2462C21.2462 3.80142 17.4447 0 12.7461 0Z" fill="#0071FF"/>
<path d="M12.751 0V4.25003C10.4017 4.25003 8.50101 6.15074 8.50101 8.50006H4.25098C4.25098 3.80142 8.05239 0 12.751 0Z" fill="#142438"/>
</svg>
