<svg width="24" height="24" viewBox="0 0 24 24" fill="none" xmlns="http://www.w3.org/2000/svg">
<g clip-path="url(#clip0)">
<path d="M21.312 12.644C20.34 11.455 17.666 8.432 16.715 7.36L14.931 8.378L19.588 13.728C20.211 14.42 20.047 15.432 19.212 15.967C18.439 16.464 13.871 19.343 12.826 20.002C12.752 19.281 12.468 18.611 12 18.054C11.531 17.497 5.885 10.678 4.477 8.876C4.008 8.275 3.902 7.63 4.182 7.059C4.45 6.51 5.024 6.141 5.612 6.141C6.531 6.141 7.02 6.796 7.161 7.356C7.321 7.997 7.126 8.587 6.538 9.041L7.867 10.665L15.663 6.219C17.085 5.168 17.485 3.228 16.593 1.706C15.975 0.653001 14.834 8.00919e-07 13.615 8.00919e-07C12.427 8.00919e-07 12.822 -0.0159993 4.05 4.475C2.816 5.066 2 6.262 2 7.677C2 8.547 2.308 9.433 2.889 10.164C4.316 11.958 10.45 19.349 10.505 19.421C10.876 19.914 10.932 20.54 10.655 21.094C10.378 21.649 9.843 21.98 9.226 21.98C8.307 21.98 7.818 21.325 7.677 20.764C7.521 20.135 7.689 19.556 8.281 19.11L7.004 17.565C6.182 18.23 5.727 19.061 5.627 20.007C5.395 22.212 7.152 24 9.24 24C9.836 24 10.551 23.823 11.081 23.49L20.508 17.544C21.465 16.88 22 15.763 22 14.647C22 13.903 21.76 13.193 21.312 12.644V12.644ZM13.02 2.152C13.208 2.065 13.418 2.018 13.629 2.018C14.161 2.018 14.626 2.299 14.872 2.77C15.184 3.366 15.098 4.239 14.324 4.682L9.227 7.57C9.176 6.481 8.648 5.489 7.772 4.838L13.02 2.152V2.152ZM10.646 14.417L11.637 11.726L12.45 12.743L12.005 14.176L13.787 14.414L14.599 15.429L11.2 15.108L10.646 14.417V14.417ZM16.127 11.341L16.679 12.032L15.689 14.723L14.877 13.708L15.317 12.27L13.539 12.038L12.727 11.022L16.127 11.341Z" fill="black"/>
</g>
<defs>
<clipPath id="clip0">
<rect width="24" height="24" fill="white"/>
</clipPath>
</defs>
</svg>
