<svg width="9" height="7" viewBox="0 0 9 7" fill="none" xmlns="http://www.w3.org/2000/svg">
<path d="M4.48233 6.24975C4.36445 6.25044 4.24759 6.22768 4.13845 6.18278C4.02932 6.13789 3.93006 6.07174 3.84636 5.98812L0.263428 2.37948C0.179911 2.29537 0.113662 2.19551 0.0684629 2.08561C0.0232639 1.9757 1.75999e-09 1.85791 0 1.73895C-1.75999e-09 1.61999 0.0232639 1.5022 0.0684629 1.3923C0.113662 1.28239 0.179911 1.18253 0.263428 1.09842C0.346944 1.0143 0.446093 0.947576 0.555213 0.902053C0.664333 0.856529 0.781288 0.833099 0.899398 0.833099C1.01751 0.833099 1.13446 0.856529 1.24358 0.902053C1.3527 0.947576 1.45185 1.0143 1.53537 1.09842L4.48233 4.08457L7.43825 1.2157C7.52065 1.12342 7.62107 1.04925 7.73323 0.99784C7.84538 0.946429 7.96687 0.91888 8.09008 0.916914C8.21329 0.914948 8.33558 0.938607 8.4493 0.986413C8.56301 1.03422 8.66571 1.10514 8.75097 1.19475C8.83624 1.28436 8.90222 1.39072 8.94481 1.50718C8.9874 1.62365 9.00566 1.74771 8.99847 1.87161C8.99128 1.99551 8.95879 2.11658 8.90302 2.22725C8.84725 2.33792 8.76941 2.43582 8.67436 2.51481L5.09143 5.99715C4.92762 6.15621 4.70985 6.24652 4.48233 6.24975Z" fill="#0071FF"/>
</svg>
