<svg width="12" height="12" viewBox="0 0 12 12" fill="none" xmlns="http://www.w3.org/2000/svg">
<path d="M2.76923 0.923077H1.84615C0.826552 0.923077 0 1.74963 0 2.76923V10.1538C0 11.1734 0.826552 12 1.84615 12H9.23077C10.2504 12 11.0769 11.1734 11.0769 10.1538V9.23077C11.0769 8.72097 10.6637 8.30769 10.1539 8.30769C9.64405 8.30769 9.23077 8.72097 9.23077 9.23077V10.1538H1.84615V2.76923H2.76923C3.27903 2.76923 3.69231 2.35596 3.69231 1.84615C3.69231 1.33635 3.27903 0.923077 2.76923 0.923077Z" fill="#8D9091"/>
<path d="M12 4.61538V0H7.38462C6.87482 0 6.46154 0.413276 6.46154 0.923077C6.46154 1.43288 6.87482 1.84615 7.38462 1.84615H8.84839L4.89369 5.80085C4.53321 6.16133 4.53321 6.74579 4.89369 7.10627C5.25418 7.46676 5.83864 7.46676 6.19912 7.10627L10.1538 3.15156V4.61539C10.1538 5.12519 10.5671 5.53846 11.0769 5.53846C11.5867 5.53846 12 5.12519 12 4.61538Z" fill="#8D9091"/>
</svg>
