<svg width="13" height="14" viewBox="0 0 13 14" fill="none" xmlns="http://www.w3.org/2000/svg">
<path d="M3 1.42383H2C0.895431 1.42383 0 2.31926 0 3.42383V11.4238C0 12.5284 0.895431 13.4238 2 13.4238H10C11.1046 13.4238 12 12.5284 12 11.4238V10.4238C12 9.87154 11.5523 9.42383 11 9.42383C10.4477 9.42383 10 9.87154 10 10.4238V11.4238H2V3.42383H3C3.55228 3.42383 4 2.97611 4 2.42383C4 1.87154 3.55228 1.42383 3 1.42383Z" fill="#3F87D9"/>
<path d="M13 5.42383V0.423828H8C7.44771 0.423828 7 0.871543 7 1.42383C7 1.97611 7.44771 2.42383 8 2.42383H9.58576L5.3015 6.70808C4.91097 7.0986 4.91097 7.73177 5.3015 8.12229C5.69202 8.51282 6.32519 8.51282 6.71571 8.12229L11 3.83802V5.42383C11 5.97611 11.4477 6.42383 12 6.42383C12.5523 6.42383 13 5.97611 13 5.42383Z" fill="#3F87D9"/>
</svg>
