<svg width="22" height="20" viewBox="0 0 22 20" fill="none" xmlns="http://www.w3.org/2000/svg">
<path d="M21.4347 0.395653C21.2107 0.201589 20.9381 0.0727146 20.6464 0.0229855C20.3547 -0.0267435 20.055 0.00456747 19.7798 0.113528L1.03088 7.50617C0.704132 7.63506 0.427745 7.86666 0.243066 8.16633C0.0583872 8.46599 -0.0246573 8.81762 0.00635623 9.1686C0.0373697 9.51958 0.180774 9.85105 0.415116 10.1134C0.649458 10.3758 0.96214 10.555 1.30639 10.6241L6.06876 11.5803V17.5504C6.06848 17.8732 6.16364 18.1888 6.34219 18.4572C6.52074 18.7257 6.77464 18.9349 7.07176 19.0584C7.36887 19.182 7.69583 19.2142 8.01122 19.1511C8.32661 19.088 8.61625 18.9324 8.84346 18.704L11.4791 16.0588L15.4792 19.5918C15.7737 19.8543 16.1538 19.9995 16.5476 20C16.7188 19.9998 16.889 19.9727 17.0518 19.9198C17.3205 19.8342 17.5621 19.6795 17.7526 19.471C17.943 19.2625 18.0757 19.0075 18.1373 18.7315L21.9585 1.99653C22.025 1.70714 22.0114 1.40498 21.9191 1.12281C21.8267 0.840632 21.6592 0.589199 21.4347 0.395755V0.395653ZM6.69313 10.0418L1.62537 9.02457L15.8154 3.42938L6.69313 10.0418ZM7.69418 17.5496V12.7158L10.2563 14.9787L7.69418 17.5496ZM16.5529 18.367L8.18282 10.9743L20.2358 2.23757L16.5529 18.367Z" fill="#0071FF"/>
</svg>
