<svg width="14" height="14" viewBox="0 0 14 14" fill="none" xmlns="http://www.w3.org/2000/svg">
<path d="M7 0C10.866 0 14 3.134 14 7C14 10.866 10.866 14 7 14C3.134 14 0 10.866 0 7C0 3.134 3.134 0 7 0Z" fill="#FFE81C"/>
<path d="M11.5487 3.79701L10.7251 6.47221H8.65473L8.33513 6.71581L7.21313 11.3594H4.09513L4.67833 9.62541L4.72233 9.45621L3.44673 10.4246L5.21273 7.85781L5.62833 6.47221H2.80713L3.62313 3.79701H7.15673H7.43073L8.87833 2.86981L8.28793 3.79701H11.5487V3.79701Z" fill="#3F3F3F"/>
<path d="M10.4375 6.07189L11.0235 4.27069H8.41713L7.69873 5.44589L9.33833 6.06429L10.4375 6.07189V6.07189Z" fill="#FFE81C"/>
<path d="M4.74365 9.06233L8.45685 6.24833L6.81725 5.55873L6.91765 5.39593L7.89685 3.86113L7.90445 3.84593L5.09085 5.64873L6.56325 6.41753L4.74365 9.06233V9.06233Z" fill="#FFE81C"/>
<path d="M6.82648 10.8374L7.65768 7.66264L5.18849 9.58584L4.78809 10.8358H6.82648V10.8374V10.8374Z" fill="#FFE81C"/>
<path d="M4.04798 5.69869L6.27518 4.27669L3.88678 4.27069L3.33398 6.06269L4.92478 6.07189L4.04798 5.69869V5.69869Z" fill="#FFE81C"/>
</svg>
