<svg width="24" height="24" viewBox="0 0 24 24" fill="none" xmlns="http://www.w3.org/2000/svg">
<g clip-path="url(#clip0)">
<path d="M13 2.004C18.046 2.508 22 6.787 22 11.974C22 13.441 21.676 14.83 21.108 16.087L22.846 17.092C23.578 15.539 24 13.808 24 11.975C24 5.671 19.158 0.511 13 0V2.004V2.004ZM2.891 16.087C2.323 14.83 2 13.441 2 11.975C2 6.787 5.954 2.509 11 2.005V0C4.842 0.511 0 5.671 0 11.975C0 13.808 0.421 15.538 1.153 17.093L2.891 16.087V16.087ZM20.104 17.821C18.287 20.344 15.335 21.995 12 21.995C8.665 21.995 5.712 20.344 3.895 17.82L2.149 18.83C4.316 21.953 7.917 24 12 24C16.082 24 19.683 21.953 21.851 18.832L20.104 17.821V17.821ZM12 3.958C7.581 3.958 4 7.547 4 11.975C4 16.403 7.581 19.992 12 19.992C16.419 19.992 20 16.403 20 11.975C20 7.547 16.419 3.958 12 3.958ZM10 14.981V8.968L16 12.12L10 14.981Z" fill="#142438"/>
</g>
<defs>
<clipPath id="clip0">
<rect width="24" height="24" fill="white"/>
</clipPath>
</defs>
</svg>
