<svg width="24" height="24" viewBox="0 0 24 24" fill="none" xmlns="http://www.w3.org/2000/svg">
<path d="M11.9998 23.0769C18.1174 23.0769 23.0767 18.1176 23.0767 12C23.0767 5.8824 18.1174 0.923096 11.9998 0.923096C5.88216 0.923096 0.922852 5.8824 0.922852 12C0.922852 18.1176 5.88216 23.0769 11.9998 23.0769Z" fill="white"/>
<path d="M21.2326 17.9353H16.861V12L11.9997 16.7965L7.13848 12V17.9353H2.76685H2.62695C4.58544 21.0065 8.04778 23.0769 11.9997 23.0769C15.9517 23.0769 19.414 21.041 21.3725 17.9353H21.2326Z" fill="#4C4C4C"/>
<path d="M4.83646 15.4083V6.28158L11.9998 13.3686L19.1631 6.28158V15.4083H22.4827C22.867 14.302 23.0767 13.1266 23.0767 11.8821C23.0767 5.83216 18.1148 0.923096 11.9998 0.923096C5.88475 0.923096 0.922852 5.83216 0.922852 11.8821C0.922852 13.1266 1.13251 14.302 1.51688 15.4083H4.83646V15.4083Z" fill="#FF6B01"/>
</svg>
