<svg width="24" height="24" viewBox="0 0 24 24" fill="none" xmlns="http://www.w3.org/2000/svg">
<rect width="24" height="24" rx="4" fill="#0071FF" fill-opacity="0.15"/>
<path fill-rule="evenodd" clip-rule="evenodd" d="M8.09253 4.05965C7.5469 4.21512 7.09554 4.71142 6.98132 5.28142C6.9541 5.41732 6.94342 7.15501 6.94342 11.4465V17.4223L6.72748 17.5294C6.45746 17.6633 6.2553 17.8799 6.12373 18.1762C6.02689 18.3943 6.0211 18.4333 6.00658 18.9677C5.99246 19.4871 5.99674 19.5418 6.06305 19.687C6.11029 19.7904 6.17953 19.8707 6.26571 19.922L6.39664 20H11.2393H16.082L16.2075 19.9252C16.4126 19.803 16.4567 19.6849 16.4725 19.2142C16.5038 18.2834 16.2969 17.8001 15.7511 17.5294L15.5352 17.4223V16.5735V15.7247L16.1333 15.7039C16.8316 15.6797 17.0931 15.6261 17.479 15.4282C18.3035 15.0053 18.8643 14.1708 18.9747 13.2024C18.9948 13.0267 19.0041 11.6933 18.9983 9.82342L18.9888 6.73474L18.5676 5.8482C18.336 5.36061 18.0907 4.89349 18.0226 4.81019C17.7133 4.43208 17.1474 4.52406 16.9466 4.98508C16.8166 5.28374 16.8358 5.34497 17.4814 6.68514C17.4872 6.69714 17.4117 6.7432 17.3138 6.78748C16.8709 6.98762 16.4662 7.39764 16.2495 7.86573C16.0363 8.32635 16.0069 8.5511 16.0069 9.71887C16.0069 10.6731 16.0105 10.731 16.0775 10.8573C16.2085 11.1043 16.2778 11.1252 17.0093 11.1384L17.6579 11.1501V12.1416C17.6579 13.0137 17.6503 13.1575 17.595 13.3352C17.4352 13.8485 17.0222 14.2094 16.5036 14.2889C16.3879 14.3066 16.1227 14.3214 15.9143 14.3218L15.5352 14.3225V9.77161C15.5352 6.54099 15.5242 5.1658 15.4974 5.03146C15.4 4.54467 15.0743 4.18288 14.6175 4.05401C14.3501 3.97856 8.35884 3.98374 8.09253 4.05965ZM13.6527 5.88012C13.8433 5.98456 13.8505 6.04469 13.8505 7.5203C13.8505 8.9959 13.8433 9.05603 13.6527 9.16048C13.563 9.20965 13.2715 9.2164 11.2393 9.2164C8.70315 9.2164 8.78654 9.22332 8.6792 9.00333C8.60362 8.84843 8.60291 6.19359 8.67842 6.03884C8.7889 5.81245 8.64995 5.8242 11.2148 5.8242C13.2692 5.8242 13.5629 5.83095 13.6527 5.88012Z" fill="#0071FF"/>
</svg>
