<svg width="24" height="24" viewBox="0 0 24 24" fill="none" xmlns="http://www.w3.org/2000/svg">
<rect width="24" height="24" rx="4" fill="#0071FF" fill-opacity="0.15"/>
<path d="M18.6661 9.66732C18.6661 11.8407 17.0661 13.634 14.9861 13.9473V13.9073C14.7794 11.3207 12.6794 9.22065 10.0727 9.01398H10.0527C10.3661 6.93398 12.1594 5.33398 14.3327 5.33398C16.7261 5.33398 18.6661 7.27398 18.6661 9.66732Z" fill="#0071FF"/>
<path d="M13.9873 13.9867C13.8207 11.8733 12.1273 10.18 10.014 10.0133C9.90065 10.0067 9.78065 10 9.66732 10C7.27398 10 5.33398 11.94 5.33398 14.3333C5.33398 16.7267 7.27398 18.6667 9.66732 18.6667C12.0607 18.6667 14.0007 16.7267 14.0007 14.3333C14.0007 14.22 13.994 14.1 13.9873 13.9867ZM10.254 14.92L9.66732 16L9.08065 14.92L8.00065 14.3333L9.08065 13.7467L9.66732 12.6667L10.254 13.7467L11.334 14.3333L10.254 14.92Z" fill="#0071FF"/>
<path d="M19.167 14C18.8936 14 18.667 14.2267 18.667 14.5C18.667 16.4733 17.2936 18.1267 15.447 18.56L15.627 18.26C15.767 18.02 15.6936 17.7133 15.4536 17.5733C15.2203 17.4333 14.9069 17.5067 14.7669 17.7467L14.067 18.9133C13.9736 19.0667 13.9736 19.26 14.0603 19.4133C14.147 19.5733 14.3136 19.6667 14.4936 19.6667C17.3403 19.6667 19.6603 17.3467 19.6603 14.5C19.667 14.2267 19.4403 14 19.167 14Z" fill="#0071FF"/>
<path d="M9.16667 4C6.32 4 4 6.32 4 9.16667C4 9.44 4.22667 9.66667 4.5 9.66667C4.77333 9.66667 5 9.44 5 9.16667C5 7.19333 6.37333 5.54 8.22 5.10667L8.04 5.40667C7.9 5.64667 7.97333 5.95333 8.21333 6.09333C8.44667 6.23333 8.76 6.16 8.9 5.92L9.6 4.75333C9.68667 4.6 9.69333 4.41333 9.6 4.25333C9.51333 4.1 9.34667 4 9.16667 4Z" fill="#0071FF"/>
</svg>
