<svg width="24" height="24" viewBox="0 0 24 24" fill="none" xmlns="http://www.w3.org/2000/svg">
<rect width="24" height="24" rx="4" fill="#0071FF" fill-opacity="0.15"/>
<path d="M12.0005 6.11914C8.17645 6.11914 5.06445 9.23114 5.06445 13.0551C5.06445 16.8791 8.17645 19.9991 12.0005 19.9991C15.8245 19.9991 18.9365 16.8871 18.9365 13.0631C18.9365 9.23914 15.8245 6.11914 12.0005 6.11914ZM12.6005 12.7991C12.6005 13.1271 12.3285 13.3991 12.0005 13.3991C11.6725 13.3991 11.4005 13.1271 11.4005 12.7991V8.79914C11.4005 8.47114 11.6725 8.19914 12.0005 8.19914C12.3285 8.19914 12.6005 8.47114 12.6005 8.79914V12.7991Z" fill="#0071FF"/>
<path d="M14.3133 5.15805H9.68928C9.36928 5.15805 9.11328 4.90205 9.11328 4.58205C9.11328 4.26205 9.36928 3.99805 9.68928 3.99805H14.3133C14.6333 3.99805 14.8893 4.25405 14.8893 4.57405C14.8893 4.89405 14.6333 5.15805 14.3133 5.15805Z" fill="#0071FF"/>
</svg>
