<svg width="26" height="26" viewBox="0 0 26 26" fill="none" xmlns="http://www.w3.org/2000/svg">
<g clip-path="url(#clip0_40:1283)">
<path d="M25.5925 16.1637C23.8563 23.128 16.8025 27.3664 9.83733 25.6297C2.87507 23.8935 -1.3633 16.8393 0.373706 9.87549C2.10919 2.91037 9.16295 -1.32832 16.126 0.407925C23.0906 2.14417 27.3288 9.19914 25.5923 16.1638L25.5924 16.1637H25.5925Z" fill="#F7931A"/>
<path d="M18.7336 11.1478C18.9923 9.41779 17.6752 8.48784 15.8742 7.86747L16.4584 5.52401L15.0319 5.16855L14.4631 7.45031C14.0881 7.35677 13.703 7.26864 13.3202 7.18127L13.8931 4.88445L12.4674 4.52899L11.8828 6.87169C11.5725 6.80103 11.2677 6.7312 10.972 6.65761L10.9736 6.65024L9.00639 6.15899L8.62691 7.68262C8.62691 7.68262 9.68528 7.92523 9.66298 7.94016C10.2406 8.08434 10.3451 8.46674 10.3278 8.76984L9.66222 11.4396C9.70199 11.4497 9.75359 11.4643 9.81052 11.4872C9.76293 11.4754 9.71229 11.4625 9.65974 11.4499L8.72687 15.1898C8.65627 15.3653 8.47708 15.6287 8.0732 15.5287C8.0875 15.5494 7.03637 15.27 7.03637 15.27L6.32812 16.9029L8.18453 17.3657C8.52988 17.4523 8.86831 17.5429 9.20159 17.6281L8.61128 19.9984L10.0362 20.3539L10.6208 18.0087C11.01 18.1144 11.3878 18.2119 11.7576 18.3037L11.175 20.6379L12.6016 20.9933L13.1918 18.6274C15.6244 19.0878 17.4535 18.9022 18.2233 16.702C18.8437 14.9305 18.1925 13.9087 16.9127 13.2424C17.8448 13.0275 18.5469 12.4144 18.7341 11.148L18.7336 11.1477L18.7336 11.1478ZM15.4743 15.7182C15.0334 17.4896 12.0509 16.532 11.0839 16.2919L11.8672 13.1516C12.8341 13.393 15.935 13.8707 15.4743 15.7182H15.4743ZM15.9155 11.1221C15.5133 12.7334 13.0309 11.9148 12.2256 11.7141L12.9358 8.86604C13.7411 9.06678 16.3344 9.44142 15.9156 11.1221H15.9155Z" fill="white"/>
</g>
<defs>
<clipPath id="clip0_40:1283">
<rect width="26" height="26" fill="white"/>
</clipPath>
</defs>
</svg>
