<svg width="26" height="26" viewBox="0 0 26 26" fill="none" xmlns="http://www.w3.org/2000/svg">
<g clip-path="url(#clip0_40:1267)">
<path d="M17.0275 2.16679H7.56231L6.77735 6.55246L15.3208 6.56259C19.5292 6.56259 20.77 8.092 20.7345 10.6241C20.7143 11.9206 20.1521 14.1185 19.909 14.8326C19.2608 16.7317 17.9289 18.8941 12.9355 18.889L4.63009 18.884L3.84766 23.2747H13.2925C16.6248 23.2747 18.0378 22.8848 19.5419 22.196C22.8691 20.6514 24.8492 17.3698 25.6443 13.0854C26.8218 6.70439 25.3531 2.16679 17.0275 2.16679Z" fill="#008DE4"/>
<path d="M3.47916 10.5176C0.997662 10.5176 0.643163 12.1331 0.410206 13.1105C0.101286 14.3867 0 14.9083 0 14.9083H9.69303C12.1745 14.9083 12.529 13.2928 12.762 12.3154C13.0709 11.0392 13.1722 10.5176 13.1722 10.5176H3.47916Z" fill="#008DE4"/>
</g>
<defs>
<clipPath id="clip0_40:1267">
<rect width="26" height="26" fill="white"/>
</clipPath>
</defs>
</svg>
