<svg width="26" height="25" viewBox="0 0 26 25" fill="none" xmlns="http://www.w3.org/2000/svg">
<g clip-path="url(#clip0_40:1260)">
<path d="M13.4267 23.2448C19.4527 23.2448 24.3377 18.3389 24.3377 12.2871C24.3377 6.23529 19.4527 1.32935 13.4267 1.32935C7.40066 1.32935 2.51562 6.23529 2.51562 12.2871C2.51562 18.3389 7.40066 23.2448 13.4267 23.2448Z" fill="white"/>
<path d="M13.4267 0.000244141C11.0068 0.000244141 8.64122 0.720903 6.62914 2.07109C4.61706 3.42128 3.04883 5.34035 2.12277 7.58562C1.19671 9.8309 0.954408 12.3015 1.42651 14.6851C1.89861 17.0687 3.06391 19.2581 4.77505 20.9766C6.48618 22.6951 8.6663 23.8654 11.0397 24.3395C13.4131 24.8136 15.8732 24.5703 18.1089 23.6402C20.3447 22.7102 22.2555 21.1353 23.6 19.1146C24.9444 17.0939 25.662 14.7182 25.662 12.2879V12.2879C25.6667 10.679 25.3557 9.08484 24.747 7.59656C24.1382 6.10829 23.2435 4.75501 22.1139 3.61399C20.9844 2.47298 19.6421 1.56657 18.1637 0.946518C16.6854 0.32647 15.0999 0.00492586 13.4978 0.000244141H13.4267ZM13.6341 12.7044L12.3602 17.0185H19.174C19.2192 17.0169 19.2642 17.0243 19.3065 17.0402C19.3488 17.0561 19.3875 17.0802 19.4206 17.1111C19.4536 17.1421 19.4802 17.1793 19.4989 17.2205C19.5176 17.2618 19.528 17.3064 19.5295 17.3517V17.4648L18.937 19.5177C18.9109 19.6148 18.8527 19.7001 18.7719 19.7595C18.6912 19.819 18.5927 19.8491 18.4926 19.845H8.06451L9.81241 13.8648L7.85713 14.4598L8.30151 13.0912L10.2568 12.4962L12.7157 4.10605C12.7428 4.00951 12.8012 3.92485 12.8817 3.86554C12.9623 3.80623 13.0603 3.77569 13.1601 3.77878H15.7967C15.8419 3.77719 15.8869 3.78455 15.9292 3.80044C15.9715 3.81633 16.0102 3.84044 16.0433 3.87138C16.0763 3.90233 16.1029 3.93951 16.1216 3.9808C16.1403 4.02209 16.1507 4.06667 16.1522 4.112V4.22506L14.0785 11.3061L16.0337 10.711L15.619 12.1392L13.6341 12.7044Z" fill="#345D9D"/>
</g>
<defs>
<clipPath id="clip0_40:1260">
<rect width="26" height="24.5753" fill="white" transform="translate(0 0.000244141)"/>
</clipPath>
</defs>
</svg>
