<svg width="27" height="26" viewBox="0 0 27 26" fill="none" xmlns="http://www.w3.org/2000/svg">
<g clip-path="url(#clip0_40:1275)">
<path d="M26.3994 12.9992C26.3994 20.178 20.4902 25.9979 13.1997 25.9979C5.90921 25.9979 0 20.178 0 12.9992C0 5.82045 5.90935 0.000488281 13.1997 0.000488281C20.49 0.000488281 26.3994 5.81989 26.3994 12.9992Z" fill="white"/>
<path d="M13.1983 0.000488281C5.91042 0.000488281 -0.00926684 5.82869 1.08906e-05 12.9988C0.00183832 14.4333 0.234133 15.8132 0.670116 17.104H4.61934V6.16915L13.1983 14.6171L21.7768 6.16915V17.1042H25.7269C26.1635 15.8135 26.3946 14.4336 26.3972 12.999C26.4096 5.82142 20.4869 0.00221862 13.1983 0.00221862V0.000488281Z" fill="#F26822"/>
<path d="M11.2262 16.5592L7.48232 12.8723V19.753H4.61994L1.91895 19.7535C4.23576 23.4965 8.42281 26.0003 13.1991 26.0003C17.9754 26.0003 22.1627 23.4959 24.4799 19.7529H18.9151V12.8723L15.171 16.5592L13.1987 18.5014L11.2264 16.5592H11.2262Z" fill="#4D4D4D"/>
</g>
<defs>
<clipPath id="clip0_40:1275">
<rect width="26.4" height="26" fill="white" transform="translate(0 0.000488281)"/>
</clipPath>
</defs>
</svg>
