<svg width="24" height="24" viewBox="0 0 24 24" fill="none" xmlns="http://www.w3.org/2000/svg">
<circle cx="12" cy="12" r="12" fill="#00EF8B"/>
<rect x="13.8721" y="10.1277" width="3.384" height="3.384" fill="white"/>
<path d="M10.4881 14.7837C10.4881 15.4797 9.91206 16.0557 9.21606 16.0557C8.52006 16.0557 7.94406 15.4797 7.94406 14.7837C7.94406 14.0877 8.52006 13.5117 9.21606 13.5117V13.5117H10.4881V10.1277H9.21606C6.64806 10.1277 4.56006 12.2157 4.56006 14.7837C4.56006 17.3517 6.64806 19.4397 9.21606 19.4397C11.7841 19.4397 13.8721 17.3517 13.8721 14.7837V14.7837V13.5117H10.4881V14.7837Z" fill="white"/>
<path d="M15.1438 8.4238H18.9598V5.03979H15.1438C12.5758 5.03979 10.4878 7.1278 10.4878 9.6958V10.1278H13.8718V9.6958C13.8718 8.9998 14.4478 8.4238 15.1438 8.4238Z" fill="white"/>
<path d="M13.8718 10.1277V10.1277H10.4878V13.5117H13.8718V10.1277Z" fill="#16FF99"/>
</svg>
