<svg width="24" height="24" viewBox="0 0 24 24" fill="none" xmlns="http://www.w3.org/2000/svg">
<g clip-path="url(#clip0)">
<path d="M17.1565 13.4933C17.174 13.4948 17.1909 13.5004 17.2057 13.5097C17.2205 13.519 17.2328 13.5316 17.2416 13.5466C17.2504 13.5616 17.2554 13.5784 17.2561 13.5957C17.2569 13.613 17.2534 13.6302 17.246 13.6458L12.146 22.3322C12.1364 22.3472 12.1233 22.3597 12.1077 22.3685C12.0921 22.3773 12.0745 22.3822 12.0565 22.3827H8.93868C8.92055 22.3827 8.90274 22.378 8.88706 22.3691C8.87138 22.3601 8.85839 22.3473 8.84941 22.3318C8.84043 22.3162 8.83578 22.2987 8.83594 22.2808C8.8361 22.263 8.84106 22.2455 8.85031 22.2301L13.9503 13.5438C13.9593 13.5285 13.9722 13.5158 13.9877 13.5069C14.0032 13.4981 14.0208 13.4934 14.0387 13.4933H17.1565ZM14.1249 11.0039C14.1069 11.0034 14.0893 10.9986 14.0737 10.9898C14.0581 10.981 14.0449 10.9685 14.0354 10.9534L8.85031 2.12204C8.84106 2.1067 8.8361 2.08921 8.83594 2.07136C8.83578 2.05351 8.84043 2.03594 8.84941 2.02043C8.85839 2.00493 8.87138 1.99205 8.88706 1.9831C8.90274 1.97415 8.92055 1.96945 8.93868 1.96948H12.0565C12.0745 1.96998 12.0921 1.97486 12.1077 1.98367C12.1233 1.99248 12.1364 2.00495 12.146 2.01998L17.331 10.8514C17.3403 10.8667 17.3453 10.8842 17.3454 10.9021C17.3456 10.9199 17.3409 10.9375 17.332 10.953C17.323 10.9685 17.31 10.9814 17.2943 10.9903C17.2786 10.9993 17.2608 11.004 17.2427 11.0039H14.1249Z" fill="#E31337"/>
<path d="M14.7414 2.12227C14.7318 2.10645 14.7268 2.08834 14.7269 2.06991C14.727 2.05148 14.7322 2.03343 14.742 2.01771C14.7518 2.002 14.7657 1.98922 14.7823 1.98076C14.799 1.97229 14.8176 1.96847 14.8363 1.96971H17.9585C17.9764 1.96968 17.9941 1.97433 18.0096 1.9832C18.0251 1.99208 18.038 2.00484 18.0468 2.02021L23.9912 12.1258C24.0003 12.1411 24.0051 12.1586 24.0051 12.1763C24.0051 12.1941 24.0003 12.2115 23.9912 12.2268L18.0468 22.3325C18.038 22.3478 18.0251 22.3606 18.0096 22.3695C17.9941 22.3783 17.9764 22.383 17.9585 22.3829H14.8363C14.8181 22.3832 14.8001 22.3786 14.7843 22.3697C14.7685 22.3609 14.7553 22.348 14.7462 22.3325C14.7371 22.3169 14.7324 22.2993 14.7325 22.2813C14.7326 22.2634 14.7375 22.2458 14.7468 22.2304L20.6552 12.1763L14.7414 2.12227ZM12.2039 12.1248C12.2135 12.1411 12.2186 12.1596 12.2186 12.1785C12.2186 12.1973 12.2135 12.2159 12.2039 12.2322L6.23231 22.3325C6.22229 22.3469 6.20886 22.3586 6.19318 22.3668C6.17749 22.3749 6.16003 22.3792 6.14231 22.3792C6.12458 22.3792 6.10712 22.3749 6.09144 22.3668C6.07576 22.3586 6.06232 22.3469 6.05231 22.3325L0.0141271 12.2279C0.0045524 12.2116 -0.000488281 12.193 -0.000488281 12.1742C-0.000488281 12.1553 0.0045524 12.1368 0.0141271 12.1205L5.98576 2.02021C5.99578 2.0058 6.00921 1.99402 6.02489 1.98588C6.04057 1.97774 6.05803 1.97348 6.07576 1.97348C6.09349 1.97348 6.11095 1.97774 6.12663 1.98588C6.14231 1.99402 6.15574 2.0058 6.16576 2.02021L12.2039 12.1248Z" fill="#E31337"/>
</g>
<defs>
<clipPath id="clip0">
<rect width="24" height="23.6364" fill="white"/>
</clipPath>
</defs>
</svg>
