<svg width="24" height="24" viewBox="0 0 24 24" fill="none" xmlns="http://www.w3.org/2000/svg">
<path d="M12 24C18.6276 24 24 18.6276 24 12C24 5.3724 18.6276 0 12 0C5.3724 0 0 5.3724 0 12C0 18.6276 5.3724 24 12 24Z" fill="#EDF0F4"/>
<path d="M10.5384 10.2532V4.92603C10.5384 4.92603 8.81201 5.78429 8.81201 7.60935C8.81201 9.4344 10.5384 10.2532 10.5384 10.2532" fill="#006E3C"/>
<path d="M10.5386 4.92603C10.5386 4.92603 12.265 5.78429 12.265 7.60935C12.265 9.4344 10.5386 10.2532 10.5386 10.2532V4.92603Z" fill="#00B43C"/>
<path d="M14.5542 12.7488L16.9218 11.4072C16.9218 11.4072 16.103 10.8547 15.2941 11.3184C14.4851 11.782 14.5542 12.7488 14.5542 12.7488" fill="#006E3C"/>
<path d="M16.9214 11.4072C16.9214 11.4072 16.9707 12.3937 16.1617 12.8475C15.3528 13.3112 14.5537 12.7489 14.5537 12.7489L16.9214 11.4072Z" fill="#00B43C"/>
<path fill-rule="evenodd" clip-rule="evenodd" d="M17.0357 11.1879L17.0398 11.19L17.178 11.2788V11.4268C17.178 11.4662 17.1286 12.6007 16.2901 13.0841C16.0336 13.2321 15.7672 13.2814 15.5206 13.2814C15.1161 13.2814 14.7511 13.1433 14.5736 13.0545L14.2579 13.2321C14.2677 13.2913 14.2776 13.3604 14.2776 13.4294C14.2776 13.824 14.0112 14.1496 13.6561 14.2581V15.9746C14.0112 16.0733 14.2776 16.4087 14.2776 16.8033C14.2776 17.2867 13.883 17.6714 13.4095 17.6714C13.153 17.6714 12.9261 17.5629 12.7682 17.3853L11.3772 18.1844C11.397 18.2535 11.4068 18.3225 11.4068 18.3916C11.4068 18.8651 11.0122 19.2499 10.5387 19.2499C10.0553 19.2499 9.67057 18.8651 9.67057 18.3916C9.67057 18.3225 9.68043 18.2535 9.70016 18.1844L8.30917 17.3853C8.15133 17.5629 7.92443 17.6714 7.66794 17.6714C7.18455 17.6714 6.7998 17.2768 6.7998 16.8033C6.7998 16.4087 7.06616 16.0831 7.42131 15.9746V14.2581C7.06616 14.1594 6.7998 13.824 6.7998 13.4294C6.7998 12.946 7.19441 12.5613 7.66794 12.5613C7.9047 12.5613 8.11187 12.6599 8.26971 12.8079L9.70016 11.9792C9.68043 11.9102 9.67057 11.8411 9.67057 11.7721C9.67057 11.3775 9.92706 11.042 10.2921 10.9434V10.4304C9.87774 10.1542 8.5558 9.1874 8.5558 7.63857C8.5558 5.84311 10.3315 4.72834 10.4105 4.67902L10.5387 4.6001L10.6669 4.67902C10.7459 4.72834 12.5216 5.84311 12.5216 7.63857C12.5216 9.1874 11.1997 10.164 10.7853 10.4304V10.9434C11.1405 11.042 11.4068 11.3775 11.4068 11.7721C11.4068 11.8411 11.397 11.9102 11.3772 11.9792L12.7978 12.8079C12.9557 12.6501 13.1628 12.5613 13.3996 12.5613C13.6364 12.5613 13.8435 12.6599 14.0014 12.8079L14.3171 12.6303C14.3467 12.3048 14.4749 11.5254 15.1556 11.1308C15.9846 10.6488 16.9549 11.1465 17.0357 11.1879ZM13.4093 13.8046C13.4981 13.8046 13.577 13.775 13.6461 13.7256C13.7151 13.6665 13.7645 13.5875 13.7743 13.4691C13.7842 13.4494 13.7842 13.4297 13.7842 13.41C13.7842 13.2521 13.6855 13.114 13.5474 13.0548C13.508 13.0351 13.4488 13.0252 13.3995 13.0252C13.3501 13.0252 13.3008 13.0351 13.2613 13.0548C13.1331 13.1041 13.0443 13.2225 13.0246 13.3606V13.41V13.4691C13.0443 13.5678 13.0936 13.6566 13.1726 13.7158C13.2021 13.7454 13.2317 13.7651 13.2712 13.775C13.3205 13.7947 13.36 13.8046 13.4093 13.8046ZM13.7843 16.8031C13.7843 17.0201 13.6068 17.1878 13.3996 17.1878C13.3305 17.1878 13.2516 17.1681 13.2023 17.1287C13.0938 17.0596 13.0148 16.9412 13.0148 16.8031V16.7932C13.0148 16.7538 13.0247 16.7143 13.0346 16.6749L13.0346 16.6749C13.0543 16.6058 13.1036 16.5466 13.1628 16.4973C13.2121 16.4578 13.2713 16.4282 13.3305 16.4184C13.3394 16.4184 13.3483 16.4164 13.358 16.4142C13.37 16.4115 13.3833 16.4085 13.3996 16.4085C13.4884 16.4085 13.5772 16.4381 13.6363 16.4874C13.735 16.5663 13.7843 16.6749 13.7843 16.8031ZM12.8472 16.1424C12.9359 16.0635 13.0445 16.0043 13.1628 15.9747V14.2582C13.0247 14.2187 12.9063 14.1497 12.8077 14.051L11.3674 14.8895C11.397 14.9586 11.4068 15.0474 11.4068 15.1263C11.4068 15.178 11.3993 15.2221 11.3908 15.2719L11.3871 15.294L12.8472 16.1424ZM10.5388 18.7767C10.3415 18.7767 10.1837 18.6385 10.1541 18.4511V18.3919C10.1541 18.2341 10.2527 18.096 10.3909 18.0368C10.4402 18.017 10.4895 18.0072 10.5388 18.0072C10.5882 18.0072 10.6375 18.017 10.6868 18.0368C10.8249 18.096 10.9236 18.2341 10.9236 18.3919V18.4511C10.894 18.6287 10.7263 18.7767 10.5388 18.7767ZM8.23027 16.1424L9.69031 15.294C9.68045 15.2447 9.67058 15.1855 9.67058 15.1263C9.67058 15.0375 9.69031 14.9586 9.71004 14.8797L8.26973 14.051C8.17108 14.1497 8.0527 14.2187 7.91458 14.2582V15.9747C8.03297 16.0043 8.14148 16.0635 8.23027 16.1424ZM8.0625 16.8035C8.0625 16.9416 7.99344 17.06 7.87506 17.1291C7.81587 17.1685 7.74681 17.1882 7.67776 17.1882C7.46072 17.1882 7.29302 17.0107 7.29302 16.8035C7.29302 16.6851 7.35221 16.5667 7.44099 16.4977C7.51005 16.4484 7.58897 16.4188 7.67776 16.4188C7.69749 16.4188 7.72708 16.4188 7.74681 16.4286C7.81587 16.4385 7.86519 16.4681 7.91452 16.5075C7.97371 16.547 8.01317 16.6161 8.04277 16.6851C8.05263 16.7246 8.0625 16.764 8.0625 16.8035ZM7.66792 13.0445C7.46075 13.0445 7.28317 13.2122 7.28317 13.4292C7.28317 13.5476 7.34237 13.6561 7.42129 13.7548C7.48048 13.8041 7.56926 13.8337 7.65805 13.8337C7.70738 13.8337 7.7567 13.8238 7.79616 13.8041C7.83562 13.7844 7.86521 13.7646 7.8948 13.7449L7.89481 13.7449C7.97374 13.6857 8.03293 13.5969 8.04279 13.4983V13.4391V13.3799C8.02306 13.2418 7.93427 13.1234 7.80603 13.0741C7.76657 13.0543 7.71724 13.0445 7.66792 13.0445ZM10.3018 11.4663C10.3708 11.417 10.4498 11.3874 10.5385 11.3874C10.6273 11.3874 10.7161 11.417 10.7753 11.4663C10.8542 11.5255 10.9035 11.6143 10.9134 11.7129V11.7721C10.9134 11.8905 10.8542 12.0089 10.7654 12.078C10.7358 12.0977 10.7062 12.1174 10.6668 12.1371C10.6273 12.1569 10.578 12.1667 10.5287 12.1667C10.4793 12.1667 10.43 12.1569 10.3906 12.1371C10.3511 12.1273 10.3215 12.1075 10.2919 12.078C10.2031 12.0089 10.1439 11.9004 10.1439 11.7721V11.7129C10.1735 11.6143 10.2229 11.5255 10.3018 11.4663ZM10.7753 15.4221C10.8641 15.353 10.9233 15.2544 10.9233 15.136C10.9233 15.136 10.9233 15.1261 10.9035 15.1163C10.9035 15.0768 10.9035 15.0373 10.8937 15.0077C10.874 14.9288 10.8246 14.8598 10.7654 14.8104C10.726 14.7808 10.6766 14.7512 10.6273 14.7414C10.5977 14.7315 10.5681 14.7315 10.5287 14.7315C10.4892 14.7315 10.4596 14.7315 10.43 14.7414C10.3708 14.7512 10.3215 14.7808 10.282 14.8104C10.2229 14.8696 10.1735 14.9387 10.1538 15.0176C10.1439 15.0472 10.1439 15.0768 10.1439 15.1163V15.1261C10.1439 15.2445 10.2031 15.353 10.2919 15.4221C10.3116 15.4418 10.3314 15.4517 10.3511 15.4615C10.4004 15.4911 10.4596 15.5109 10.5287 15.5109C10.5977 15.5109 10.6569 15.4911 10.7161 15.4615C10.726 15.4566 10.7358 15.4492 10.7457 15.4418L10.7457 15.4418C10.7556 15.4344 10.7654 15.427 10.7753 15.4221ZM12.561 13.222C12.5413 13.291 12.5314 13.3601 12.5314 13.4291C12.5314 13.4982 12.5413 13.5771 12.561 13.6462L11.1109 14.4847C11.0122 14.3959 10.9037 14.3367 10.7754 14.2973V12.6005C10.9136 12.561 11.0319 12.4919 11.1306 12.3933L12.561 13.222ZM10.5387 5.18198C10.154 5.45821 9.0392 6.37567 9.0392 7.64827C9.0392 8.71371 9.81855 9.48319 10.3019 9.84821V7.83571C10.3019 7.70747 10.4006 7.59895 10.5387 7.59895C10.667 7.59895 10.7755 7.70747 10.7755 7.83571V9.84821C11.249 9.48319 12.0382 8.71371 12.0382 7.64827C12.0382 6.37567 10.9234 5.45821 10.5387 5.18198ZM9.93678 12.3933C10.0354 12.4919 10.1637 12.561 10.2919 12.6005V14.2973C10.1637 14.3367 10.0552 14.3959 9.95651 14.4748L8.49647 13.6363C8.5162 13.5672 8.52606 13.4982 8.52606 13.4291C8.52606 13.3601 8.5162 13.291 8.49647 13.222L9.93678 12.3933ZM8.53593 16.8033C8.53593 16.8526 8.53593 16.902 8.52606 16.9513L9.93678 17.7701C10.0453 17.6714 10.1637 17.6024 10.3018 17.5629V15.9549C10.1538 15.9056 10.0157 15.8267 9.91705 15.7181L8.49647 16.537C8.52606 16.6257 8.53593 16.7145 8.53593 16.8033ZM11.1405 17.7701C11.0418 17.6714 10.9136 17.6024 10.7754 17.5629V15.9549C10.9234 15.9155 11.0615 15.8267 11.1602 15.7181L12.5808 16.537C12.5512 16.6159 12.5413 16.7047 12.5413 16.8033C12.5413 16.8526 12.5413 16.902 12.5512 16.9513L11.1405 17.7701ZM15.0866 12.7391C15.3628 12.8081 15.7179 12.8377 16.0336 12.6602C16.4973 12.3938 16.6255 11.8216 16.665 11.5553C16.4085 11.4468 15.8462 11.279 15.3924 11.5454C15.0767 11.7328 14.9189 12.0584 14.8498 12.3248L15.3233 12.0485C15.4417 11.9795 15.5798 12.0189 15.6489 12.1373C15.7179 12.2557 15.6785 12.3938 15.5601 12.4629L15.0866 12.7391Z" fill="black"/>
</svg>
