<svg width="24" height="24" viewBox="0 0 24 24" fill="none" xmlns="http://www.w3.org/2000/svg">
<path d="M12 0C11.8035 0 11.6072 0.00485542 11.4112 0.0145663C11.215 0.024277 11.0192 0.0385877 10.8237 0.0580093C10.6285 0.0771754 10.4335 0.101197 10.2393 0.130074C10.0451 0.158695 9.85161 0.192427 9.65893 0.230759C9.46625 0.269092 9.27484 0.312024 9.0842 0.359811C8.89382 0.407343 8.70446 0.45973 8.51663 0.516717C8.3288 0.573704 8.14226 0.635291 7.95724 0.701478C7.77248 0.767665 7.58925 0.838451 7.40781 0.913582C7.22637 0.988713 7.04698 1.06819 6.86937 1.15226C6.69177 1.23608 6.51646 1.3245 6.3432 1.41701C6.17019 1.50952 5.99923 1.60637 5.83083 1.70731C5.66242 1.80825 5.49657 1.91328 5.33328 2.0224C5.16998 2.13152 5.0095 2.24473 4.85157 2.36151C4.6939 2.47856 4.53904 2.59943 4.38724 2.72388C4.23544 2.84859 4.08697 2.97687 3.94131 3.10874C3.7959 3.2406 3.65356 3.37604 3.5148 3.5148C3.37604 3.65356 3.2406 3.7959 3.10874 3.94131C2.97687 4.08697 2.84859 4.23544 2.72388 4.38724C2.59943 4.53904 2.47856 4.6939 2.36151 4.85157C2.24473 5.0095 2.13152 5.16998 2.0224 5.33328C1.91328 5.49657 1.80825 5.66242 1.70731 5.83083C1.60637 5.99923 1.50952 6.17019 1.41701 6.3432C1.3245 6.51646 1.23608 6.69177 1.15226 6.86937C1.06819 7.04698 0.988713 7.22637 0.913582 7.40781C0.838451 7.58925 0.767665 7.77248 0.701478 7.95724C0.635291 8.14226 0.573704 8.3288 0.516717 8.51663C0.45973 8.70446 0.407343 8.89382 0.359811 9.0842C0.312024 9.27484 0.269092 9.46625 0.230759 9.65893C0.192427 9.85161 0.158695 10.0451 0.130074 10.2393C0.101197 10.4335 0.0771754 10.6285 0.0580093 10.8237C0.0385877 11.0192 0.024277 11.215 0.0145663 11.4112C0.00485542 11.6072 0 11.8035 0 12C0 12.1963 0.00485542 12.3928 0.0145663 12.5888C0.024277 12.785 0.0385877 12.9808 0.0580093 13.1763C0.0771754 13.3715 0.101197 13.5665 0.130074 13.7607C0.158695 13.9549 0.192427 14.1484 0.230759 14.3411C0.269092 14.5338 0.312024 14.7252 0.359811 14.9158C0.407343 15.1062 0.45973 15.2955 0.516717 15.4834C0.573704 15.6712 0.635291 15.8577 0.701478 16.0428C0.767665 16.2275 0.838451 16.4108 0.913582 16.5922C0.988713 16.7736 1.06819 16.953 1.15226 17.1306C1.23608 17.3082 1.3245 17.4835 1.41701 17.6568C1.50952 17.8298 1.60637 18.0008 1.70731 18.1692C1.80825 18.3376 1.91328 18.5034 2.0224 18.6667C2.13152 18.83 2.24473 18.9905 2.36151 19.1484C2.47856 19.3061 2.59943 19.461 2.72388 19.6128C2.84859 19.7646 2.97687 19.913 3.10874 20.0587C3.2406 20.2041 3.37604 20.3464 3.5148 20.4852C3.65356 20.624 3.7959 20.7594 3.94131 20.8913C4.08697 21.0231 4.23544 21.1514 4.38724 21.2761C4.53904 21.4006 4.6939 21.5214 4.85157 21.6385C5.0095 21.7553 5.16998 21.8685 5.33328 21.9776C5.49657 22.0867 5.66242 22.1917 5.83083 22.2927C5.99923 22.3936 6.17019 22.4905 6.3432 22.583C6.51646 22.6755 6.69177 22.7639 6.86937 22.8477C7.04698 22.9318 7.22637 23.0113 7.40781 23.0864C7.58925 23.1615 7.77248 23.2323 7.95724 23.2985C8.14226 23.3647 8.3288 23.426 8.51663 23.4833C8.70446 23.5403 8.89382 23.5927 9.0842 23.6402C9.27484 23.688 9.46625 23.7309 9.65893 23.7692C9.85161 23.8076 10.0451 23.8413 10.2393 23.8699C10.4335 23.8988 10.6285 23.9228 10.8237 23.942C11.0192 23.9614 11.215 23.9757 11.4112 23.9854C11.6072 23.9951 11.8035 24 12 24C12.1963 24 12.3928 23.9951 12.5888 23.9854C12.785 23.9757 12.9808 23.9614 13.1763 23.942C13.3715 23.9228 13.5665 23.8988 13.7607 23.8699C13.9549 23.8413 14.1484 23.8076 14.3411 23.7692C14.5338 23.7309 14.7252 23.688 14.9158 23.6402C15.1062 23.5927 15.2955 23.5403 15.4834 23.4833C15.6712 23.426 15.8577 23.3645 16.0428 23.2985C16.2275 23.2323 16.4108 23.1615 16.5922 23.0864C16.7736 23.0113 16.953 22.9318 17.1306 22.8477C17.3082 22.7639 17.4835 22.6755 17.6568 22.583C17.8298 22.4905 18.0008 22.3936 18.1692 22.2927C18.3376 22.1917 18.5034 22.0867 18.6667 21.9776C18.83 21.8685 18.9905 21.7553 19.1484 21.6385C19.3061 21.5214 19.461 21.4006 19.6128 21.2761C19.7646 21.1514 19.913 21.0231 20.0587 20.8913C20.2041 20.7594 20.3464 20.624 20.4852 20.4852C20.624 20.3464 20.7594 20.2041 20.8913 20.0587C21.0231 19.913 21.1514 19.7646 21.2761 19.6128C21.4006 19.461 21.5214 19.3061 21.6385 19.1484C21.7553 18.9905 21.8685 18.83 21.9776 18.6667C22.0867 18.5034 22.1917 18.3376 22.2927 18.1692C22.3936 18.0008 22.4905 17.8298 22.583 17.6568C22.6755 17.4835 22.7639 17.3082 22.8477 17.1306C22.9318 16.953 23.0113 16.7736 23.0864 16.5922C23.1615 16.4108 23.2323 16.2275 23.2985 16.0428C23.3647 15.8577 23.426 15.6712 23.4833 15.4834C23.5403 15.2955 23.5927 15.1062 23.6402 14.9158C23.688 14.7252 23.7309 14.5338 23.7692 14.3411C23.8076 14.1484 23.8413 13.9549 23.8699 13.7607C23.8988 13.5665 23.9228 13.3715 23.942 13.1763C23.9614 12.9808 23.9757 12.785 23.9854 12.5888C23.9951 12.3928 24 12.1963 24 12C24 11.8035 23.9951 11.6072 23.9854 11.4112C23.9757 11.215 23.9614 11.0192 23.942 10.8237C23.9228 10.6285 23.8988 10.4335 23.8699 10.2393C23.8413 10.0451 23.8076 9.85161 23.7692 9.65893C23.7309 9.46625 23.688 9.27484 23.6402 9.0842C23.5927 8.89382 23.5403 8.70446 23.4833 8.51663C23.426 8.3288 23.3645 8.14226 23.2985 7.95724C23.2323 7.77248 23.1615 7.58925 23.0864 7.40781C23.0113 7.22637 22.9318 7.04698 22.8477 6.86937C22.7639 6.69177 22.6755 6.51646 22.583 6.3432C22.4905 6.17019 22.3936 5.99923 22.2927 5.83083C22.1917 5.66242 22.0867 5.49657 21.9776 5.33328C21.8685 5.16998 21.7553 5.0095 21.6385 4.85157C21.5214 4.6939 21.4006 4.53904 21.2761 4.38724C21.1514 4.23544 21.0231 4.08697 20.8913 3.94131C20.7594 3.7959 20.624 3.65356 20.4852 3.5148C20.3464 3.37604 20.2041 3.2406 20.0587 3.10874C19.913 2.97687 19.7646 2.84859 19.6128 2.72388C19.461 2.59943 19.3061 2.47856 19.1484 2.36151C18.9905 2.24473 18.83 2.13152 18.6667 2.0224C18.5034 1.91328 18.3376 1.80825 18.1692 1.70731C18.0008 1.60637 17.8298 1.50952 17.6568 1.41701C17.4835 1.3245 17.3082 1.23608 17.1306 1.15226C16.953 1.06819 16.7736 0.988713 16.5922 0.913582C16.4108 0.838451 16.2275 0.767665 16.0428 0.701478C15.8577 0.635291 15.6712 0.573704 15.4834 0.516717C15.2955 0.45973 15.1062 0.407343 14.9158 0.359811C14.7252 0.312024 14.5338 0.269092 14.3411 0.230759C14.1484 0.192427 13.9549 0.158695 13.7607 0.130074C13.5665 0.101197 13.3715 0.0771754 13.1763 0.0580093C12.9808 0.0385877 12.785 0.024277 12.5888 0.0145663C12.3928 0.00485542 12.1963 0 12 0Z" fill="#571AFF"/>
<mask id="mask0" style="mask-type:alpha" maskUnits="userSpaceOnUse" x="0" y="0" width="24" height="24">
<path fill-rule="evenodd" clip-rule="evenodd" d="M0.748535 0.799561H23.0732V23.1242H0.748535V0.799561Z" fill="white"/>
</mask>
<g mask="url(#mask0)">
<path fill-rule="evenodd" clip-rule="evenodd" d="M8.03038 0.87648C5.85056 1.63622 3.86777 3.07138 2.55119 4.84207C2.50008 4.91081 2.45204 4.97214 2.44437 4.97827C2.41038 5.00536 1.94989 5.70761 1.80141 5.95855C1.4531 6.54759 1.06671 7.38809 0.818578 8.09595L0.748047 8.29732L0.753924 12.0626L0.759802 15.8281L0.866621 16.0961C0.925397 16.2436 0.989539 16.4097 1.00922 16.4649C1.20701 17.0258 1.69868 17.9591 2.16889 18.6662C2.5839 19.2902 2.97233 19.7632 3.55166 20.35C4.73765 21.5516 6.1171 22.4501 7.69332 23.048L7.95321 23.1467H15.9794L16.292 23.0261C17.4992 22.5605 18.5183 21.9617 19.621 21.0696C19.8883 20.8534 20.7278 20.0262 20.9033 19.8059C20.9718 19.7198 21.0792 19.5892 21.1412 19.5153C21.35 19.2682 21.7579 18.7078 21.9005 18.4725C21.9127 18.452 22.0014 18.3061 22.0975 18.1484C22.1936 17.9908 22.3847 17.6353 22.5222 17.3588C22.7729 16.8551 22.8015 16.7927 22.8948 16.5431C22.9222 16.4695 22.9595 16.3757 22.9774 16.3353C23.1054 16.0453 23.0957 16.4002 23.0962 12.0189C23.0964 7.63316 23.1064 7.99169 22.9774 7.70011C22.9595 7.65973 22.9119 7.5409 22.8721 7.43638C22.7297 7.06533 22.3387 6.28744 22.0628 5.82746C20.727 3.59985 18.6249 1.87465 16.1113 0.943178L15.7242 0.799561L11.9852 0.800583L8.24607 0.801349L8.03038 0.87648M5.96567 1.89099C5.92759 1.92447 5.77682 2.01008 5.77682 1.99807C5.77682 1.99168 5.81949 1.96076 5.87188 1.92958C5.96822 1.87157 6.004 1.85701 5.96567 1.89099M5.08404 2.46288C5.08404 2.46825 5.05133 2.49406 5.01147 2.52064L4.93889 2.56868L5.00585 2.51093C5.07459 2.4519 5.08404 2.44602 5.08404 2.46288M4.74879 2.70697C4.74879 2.71157 4.70126 2.75271 4.64274 2.7982L4.53668 2.881L4.63711 2.78977C4.73678 2.69956 4.74879 2.69061 4.74879 2.70697M4.10068 3.24174C4.10068 3.24506 4.04292 3.30281 3.97239 3.37002L3.84385 3.49217L3.966 3.36389C4.07947 3.24429 4.10068 3.22513 4.10068 3.24174M20.1686 3.5366C20.2353 3.60432 20.2849 3.65952 20.2788 3.65952C20.2726 3.65952 20.2131 3.60432 20.1464 3.5366C20.0794 3.46913 20.0298 3.41368 20.036 3.41368C20.0421 3.41368 20.1019 3.46913 20.1686 3.5366M20.4479 3.81598C20.5084 3.87757 20.5529 3.92791 20.5468 3.92791C20.5406 3.92791 20.4859 3.87757 20.4256 3.81598C20.3651 3.75465 20.3206 3.7043 20.3267 3.7043C20.3329 3.7043 20.3873 3.75465 20.4479 3.81598M3.45257 3.8894C3.45257 3.89297 3.38485 3.96069 3.30179 4.04042L3.15102 4.18481L3.29566 4.03404C3.42982 3.894 3.45257 3.87304 3.45257 3.8894M17.9077 3.94843C18.1356 4.05116 18.1959 4.25841 18.0802 4.54002C18.0503 4.61209 17.787 5.115 17.495 5.65728C16.9184 6.72725 16.8625 6.84404 16.862 6.97871C16.8609 7.19695 16.7347 6.99864 18.6971 9.86154C20.251 12.1288 20.1391 11.9312 20.1176 12.3623C20.0972 12.7827 19.6531 15.3538 19.5741 15.5107C19.4279 15.8012 19.4159 15.8048 17.7888 16.0299C16.785 16.169 16.7559 16.1843 16.6616 16.619C16.5663 17.058 16.6478 16.9923 13.8445 18.8903C13.0574 19.4231 13.4739 19.2915 10.2778 20.017C7.56336 20.6334 7.55518 20.6349 7.39904 20.5999C7.07322 20.5268 7.04204 20.4755 6.61911 19.3033C6.45275 18.8425 6.08016 17.8098 5.79088 17.0087C5.5016 16.2076 5.24835 15.4936 5.22791 15.422C5.18498 15.272 5.14 12.877 5.15891 11.761C5.1722 10.9826 5.19418 10.8978 5.47451 10.5543C5.7896 10.1679 5.79011 10.1736 5.34291 9.20428C4.91691 8.28047 4.77355 7.87364 4.80166 7.66767C4.83462 7.42745 4.87755 7.38248 5.99123 6.416C7.15372 5.40709 7.20431 5.36953 7.60246 5.21825L7.73228 5.16892L10.47 5.15743L13.2074 5.14618L13.3354 5.08332C13.4954 5.00461 13.5473 4.942 13.7555 4.57324C14.1575 3.86205 14.0691 3.88659 16.2021 3.89119L17.7888 3.89451L17.9077 3.94843M14.851 4.66749C14.598 4.71119 14.5209 4.78657 14.2671 5.23557C14.0399 5.63806 13.8869 5.7919 13.6321 5.87495C13.5613 5.89795 12.9495 5.90664 10.7045 5.91609L7.86642 5.92785L7.72101 5.99685C7.55414 6.07607 7.51734 6.10571 6.615 6.88845C5.43667 7.91013 5.48727 7.68397 6.12614 9.07338C6.69754 10.3161 6.69959 10.358 6.21302 10.9C6.13023 10.9923 6.03593 11.118 6.00347 11.1796L5.94444 11.2913V13.202C5.94444 14.9901 5.947 15.1222 5.98559 15.2579C6.02162 15.3846 6.74456 17.404 7.30626 18.9472C7.62722 19.8284 7.64409 19.8378 8.53672 19.6288C8.78255 19.5713 9.24509 19.465 9.56478 19.3926C13.0338 18.6086 12.7842 18.6763 13.1851 18.4116C13.7243 18.0554 15.6008 16.7605 15.6846 16.6867C15.8226 16.5653 15.8911 16.4135 15.9461 16.1078C16.0526 15.5139 16.0879 15.4925 17.2179 15.3356C19.1113 15.0724 18.878 15.284 19.1652 13.5708C19.4115 12.1044 19.4581 12.326 18.6567 11.1571C18.3618 10.727 17.6792 9.73142 17.1397 8.94484C15.738 6.90072 15.8058 7.18387 16.4367 6.0063C17.0362 4.88752 17.0503 4.82823 16.7495 4.69074C16.6578 4.64883 15.0708 4.62941 14.851 4.66749M20.7272 19.9347C20.7272 19.9377 20.5488 20.1164 20.3305 20.3313L19.9339 20.722L20.3247 20.3254C20.6878 19.9569 20.7272 19.9186 20.7272 19.9347M3.66495 20.3756C3.86147 20.5721 4.01709 20.7331 4.01096 20.7331C4.00483 20.7331 3.83898 20.5721 3.64272 20.3756C3.4462 20.1788 3.29057 20.0181 3.29671 20.0181C3.30284 20.0181 3.46869 20.1788 3.66495 20.3756M6.22366 22.3101C6.22366 22.3163 6.19351 22.3055 6.15671 22.2866C6.11991 22.2675 6.0895 22.2468 6.0895 22.2406C6.0895 22.2345 6.11991 22.2452 6.15671 22.2641C6.19351 22.2833 6.22366 22.304 6.22366 22.3101M6.52695 22.4713C6.51699 22.4815 6.29083 22.3688 6.29083 22.3537C6.29083 22.3478 6.34577 22.3701 6.41298 22.403C6.48019 22.436 6.53155 22.4669 6.52695 22.4713" fill="#541BFC"/>
</g>
<path fill-rule="evenodd" clip-rule="evenodd" d="M5.87223 1.9297C5.81984 1.96088 5.77717 1.9918 5.77717 1.99819C5.77717 2.0102 5.92794 1.92459 5.96602 1.89112C6.00435 1.85713 5.96857 1.87169 5.87223 1.9297M5.00619 2.51105L4.93924 2.5688L5.01181 2.52076C5.05168 2.49418 5.08439 2.46837 5.08439 2.46301C5.08439 2.44614 5.07493 2.45202 5.00619 2.51105M4.63746 2.79034L4.53703 2.88158L4.64308 2.79878C4.7361 2.7262 4.7637 2.69886 4.74377 2.69911C4.7407 2.69911 4.69292 2.74026 4.63746 2.79034M3.96635 3.36415L3.8442 3.49244L3.97274 3.37028C4.09208 3.25682 4.11125 3.23561 4.09464 3.23561C4.09131 3.23561 4.03356 3.29336 3.96635 3.36415M20.1468 3.53735C20.2135 3.60507 20.2731 3.66027 20.2792 3.66027C20.2853 3.66027 20.2358 3.60507 20.1691 3.53735C20.1024 3.46989 20.0426 3.41443 20.0364 3.41443C20.0303 3.41443 20.0799 3.46989 20.1468 3.53735M20.426 3.81652C20.4863 3.87811 20.541 3.92845 20.5471 3.92845C20.5532 3.92845 20.5088 3.87811 20.4482 3.81652C20.3876 3.75519 20.3332 3.70485 20.3271 3.70485C20.3209 3.70485 20.3654 3.75519 20.426 3.81652M3.29601 4.03458L3.15137 4.18535L3.30214 4.04097C3.38519 3.96124 3.45291 3.89352 3.45291 3.88994C3.45291 3.87358 3.43017 3.89454 3.29601 4.03458M14.4929 3.90833C14.1875 3.95944 14.0145 4.11558 13.7559 4.57326C13.5476 4.94202 13.4957 5.00463 13.3358 5.08333L13.2077 5.1462L10.4703 5.15744L7.73262 5.16894L7.6028 5.21826C7.20466 5.36955 7.15406 5.40711 5.99158 6.41602C4.8779 7.3825 4.83497 7.42747 4.802 7.66769C4.77389 7.87366 4.91726 8.28049 5.34325 9.20429C5.79046 10.1736 5.78995 10.168 5.47486 10.5544C5.19453 10.8978 5.17255 10.9827 5.15926 11.761C5.14035 12.877 5.18533 15.272 5.22826 15.422C5.2487 15.4936 5.50195 16.2076 5.79123 17.0087C6.08051 17.8099 6.4531 18.8425 6.61946 19.3033C7.04239 20.4755 7.07357 20.5268 7.39939 20.5999C7.55553 20.6349 7.56371 20.6334 10.2781 20.017C13.4743 19.2915 13.0577 19.4231 13.8448 18.8903C16.6482 16.9924 16.5666 17.058 16.662 16.619C16.7563 16.1843 16.7854 16.169 17.7892 16.03C19.4163 15.8048 19.4283 15.8013 19.5744 15.5107C19.6534 15.3538 20.0975 12.7827 20.118 12.3624C20.1395 11.9312 20.2514 12.1288 18.6974 9.86156C16.7351 6.99866 16.8613 7.19697 16.8623 6.97873C16.8628 6.84406 16.9188 6.72727 17.4953 5.65729C17.7874 5.11502 18.0506 4.61211 18.0805 4.54004C18.1963 4.25843 18.136 4.05118 17.908 3.94845L17.7892 3.89453L16.2025 3.89121C15.3232 3.88942 14.5609 3.89708 14.4929 3.90833M16.7498 4.69121C17.0506 4.82869 17.0366 4.88798 16.4371 6.00677C15.8061 7.18433 15.7384 6.90118 17.1401 8.94531C17.6795 9.73188 18.3621 10.7275 18.657 11.1576C19.4584 12.3265 19.4119 12.1049 19.1655 13.5712C18.9335 14.9555 18.9297 14.968 18.6941 15.0851C18.5624 15.1505 18.6074 15.1431 17.2183 15.336C16.0882 15.4929 16.053 15.5144 15.9464 16.1083C15.8915 16.4139 15.823 16.5657 15.685 16.6871C15.6012 16.761 13.7247 18.0558 13.1855 18.4121C12.7845 18.6768 13.0342 18.6091 9.56513 19.3931C9.24544 19.4654 8.7829 19.5717 8.53706 19.6292C7.64444 19.8383 7.62757 19.8288 7.3066 18.9477C6.74491 17.4044 6.02196 15.3851 5.98593 15.2584C5.94734 15.1227 5.94479 14.9905 5.94479 13.2025V11.2917L6.00382 11.1801C6.03627 11.1185 6.13057 10.9928 6.21337 10.9005C6.69993 10.3585 6.69789 10.3166 6.12648 9.07385C5.48761 7.68443 5.43702 7.91059 6.61535 6.88892C7.51768 6.10617 7.55448 6.07653 7.72135 5.99731L7.86676 5.92831L10.7049 5.91656C12.9499 5.9071 13.5616 5.89841 13.6324 5.87541C13.8872 5.79236 14.0403 5.63852 14.2675 5.23603C14.6107 4.6286 14.5675 4.6447 15.8225 4.65109C16.5467 4.65492 16.6832 4.6608 16.7498 4.69121M20.325 20.3259L19.9343 20.7225L20.3309 20.3318C20.5491 20.1169 20.7275 19.9383 20.7275 19.9352C20.7275 19.9191 20.6882 19.9574 20.325 20.3259M3.64306 20.3764C3.83932 20.5729 4.00517 20.7339 4.01131 20.7339C4.01744 20.7339 3.86181 20.5729 3.6653 20.3764C3.46904 20.1796 3.30319 20.0188 3.29705 20.0188C3.29092 20.0188 3.44655 20.1796 3.64306 20.3764M6.08995 22.2407C6.08995 22.2469 6.12036 22.2676 6.15716 22.2867C6.19396 22.3057 6.22412 22.3164 6.22412 22.3103C6.22412 22.3041 6.19396 22.2834 6.15716 22.2643C6.12036 22.2453 6.08995 22.2346 6.08995 22.2407M6.29117 22.3536C6.29117 22.3687 6.51733 22.4814 6.5273 22.4712C6.5319 22.4668 6.48054 22.4359 6.41333 22.4029C6.34612 22.37 6.29117 22.3477 6.29117 22.3536" fill="#F7F5FC"/>
<path d="M4.51008 3.34521C4.45923 3.34521 4.40838 3.34777 4.35752 3.35288C4.30692 3.35774 4.25658 3.36515 4.20675 3.37511C4.15666 3.38508 4.10734 3.39735 4.05879 3.41217C4.00998 3.42699 3.96194 3.44411 3.91491 3.46379C3.86789 3.48321 3.8219 3.50493 3.77717 3.52895C3.7322 3.55298 3.6885 3.57904 3.64608 3.60741C3.60391 3.63577 3.56303 3.66593 3.52367 3.69838C3.48432 3.73058 3.4465 3.76482 3.41046 3.80086C3.37443 3.83663 3.34044 3.87445 3.30799 3.91381C3.27579 3.95316 3.24538 3.99405 3.21727 4.03647C3.1889 4.07864 3.16258 4.12234 3.13882 4.16731C3.1148 4.21229 3.09307 4.25803 3.0734 4.30531C3.05397 4.35233 3.03685 4.40012 3.02203 4.44892C3.00721 4.49773 2.99494 4.54706 2.98498 4.59689C2.97501 4.64697 2.9676 4.69706 2.96249 4.74792C2.95763 4.79851 2.95508 4.84937 2.95508 4.90022C2.95508 4.95108 2.95763 5.00193 2.96249 5.05278C2.9676 5.10338 2.97501 5.15373 2.98498 5.20356C2.99494 5.25364 3.00721 5.30297 3.02203 5.35177C3.03685 5.40033 3.05397 5.44837 3.0734 5.49539C3.09307 5.54241 3.1148 5.58841 3.13882 5.63339C3.16258 5.67811 3.1889 5.72181 3.21727 5.76423C3.24538 5.80639 3.27579 5.84728 3.30799 5.88664C3.34044 5.92599 3.37443 5.96381 3.41046 5.99984C3.4465 6.03588 3.48432 6.06986 3.52367 6.10232C3.56303 6.13452 3.60391 6.16493 3.64608 6.19329C3.6885 6.2214 3.7322 6.24772 3.77717 6.27175C3.8219 6.29551 3.86789 6.31749 3.91491 6.33691C3.96194 6.35633 4.00998 6.37345 4.05879 6.38828C4.10734 6.4031 4.15666 6.41536 4.20675 6.42533C4.25658 6.4353 4.30692 6.44271 4.35752 6.44782C4.40838 6.45267 4.45923 6.45523 4.51008 6.45523C4.56094 6.45523 4.61179 6.45267 4.66239 6.44782C4.71325 6.44271 4.76359 6.4353 4.81342 6.42533C4.86325 6.41536 4.91283 6.4031 4.96138 6.38828C5.01019 6.37345 5.05798 6.35633 5.105 6.33691C5.15228 6.31749 5.19827 6.29551 5.243 6.27175C5.28797 6.24772 5.33167 6.2214 5.37384 6.19329C5.41626 6.16493 5.45714 6.13452 5.4965 6.10232C5.53585 6.06986 5.57367 6.03588 5.60971 5.99984C5.64548 5.96381 5.67973 5.92599 5.71218 5.88664C5.74438 5.84728 5.77479 5.80639 5.8029 5.76423C5.83127 5.72181 5.85733 5.67811 5.88135 5.63339C5.90537 5.58841 5.9271 5.54241 5.94677 5.49539C5.96619 5.44837 5.98332 5.40033 5.99814 5.35177C6.01296 5.30297 6.02523 5.25364 6.03519 5.20356C6.04516 5.15373 6.05257 5.10338 6.05743 5.05278C6.06254 5.00193 6.06509 4.95108 6.06509 4.90022C6.06509 4.84937 6.06254 4.79851 6.05743 4.74792C6.05257 4.69706 6.04516 4.64697 6.03519 4.59689C6.02523 4.54706 6.01296 4.49773 5.99814 4.44892C5.98332 4.40012 5.96619 4.35233 5.94677 4.30531C5.9271 4.25803 5.90537 4.21229 5.88135 4.16731C5.85733 4.12234 5.83127 4.07864 5.8029 4.03647C5.77479 3.99405 5.74438 3.95316 5.71218 3.91381C5.67973 3.87445 5.64548 3.83663 5.60971 3.80086C5.57367 3.76482 5.53585 3.73058 5.4965 3.69838C5.45714 3.66593 5.41626 3.63577 5.37384 3.60741C5.33167 3.57904 5.28797 3.55298 5.243 3.52895C5.19827 3.50493 5.15228 3.48321 5.105 3.46379C5.05798 3.44411 5.01019 3.42699 4.96138 3.41217C4.91283 3.39735 4.86325 3.38508 4.81342 3.37511C4.76359 3.36515 4.71325 3.35774 4.66239 3.35288C4.61179 3.34777 4.56094 3.34521 4.51008 3.34521Z" fill="#571AFF"/>
<path d="M5.19368 2.54199C5.14282 2.54199 5.09197 2.54429 5.04137 2.5494C4.99077 2.55426 4.94043 2.56192 4.89034 2.57164C4.84051 2.5816 4.79119 2.59412 4.74238 2.60895C4.69357 2.62351 4.64578 2.64063 4.59876 2.66031C4.55174 2.67973 4.50574 2.70145 4.46077 2.72548C4.41579 2.7495 4.37209 2.77556 4.32993 2.80393C4.28751 2.83229 4.24662 2.86245 4.20727 2.8949C4.16791 2.9271 4.13035 2.96135 4.09431 2.99738C4.05828 3.03341 4.02404 3.07098 3.99184 3.11033C3.95938 3.14968 3.92923 3.19057 3.90086 3.23299C3.8725 3.27541 3.84643 3.31886 3.82241 3.36383C3.79839 3.40881 3.77667 3.45481 3.75725 3.50183C3.73757 3.54885 3.72045 3.59664 3.70563 3.64545C3.69106 3.69426 3.67854 3.74358 3.66857 3.79341C3.65886 3.8435 3.65119 3.89384 3.64634 3.94444C3.64123 3.99504 3.63867 4.04589 3.63867 4.09674C3.63867 4.14785 3.64123 4.19871 3.64634 4.24931C3.65119 4.2999 3.65886 4.35025 3.66857 4.40033C3.67854 4.45017 3.69106 4.49949 3.70563 4.5483C3.72045 4.59685 3.73757 4.64489 3.75725 4.69191C3.77667 4.73893 3.79839 4.78493 3.82241 4.82991C3.84643 4.87489 3.8725 4.91833 3.90086 4.96075C3.92923 5.00317 3.95938 5.04406 3.99184 5.08341C4.02404 5.12277 4.05828 5.16033 4.09431 5.19636C4.13035 5.2324 4.16791 5.26664 4.20727 5.29884C4.24662 5.33104 4.28751 5.36145 4.32993 5.38981C4.37209 5.41818 4.41579 5.44425 4.46077 5.46827C4.50574 5.49229 4.55174 5.51401 4.59876 5.53343C4.64578 5.55285 4.69357 5.56998 4.74238 5.5848C4.79119 5.59962 4.84051 5.61188 4.89034 5.62185C4.94043 5.63182 4.99077 5.63923 5.04137 5.64434C5.09197 5.64945 5.14282 5.65175 5.19368 5.65175C5.24479 5.65175 5.29539 5.64945 5.34624 5.64434C5.39684 5.63923 5.44718 5.63182 5.49701 5.62185C5.5471 5.61188 5.59642 5.59962 5.64523 5.5848C5.69378 5.56998 5.74183 5.55285 5.78885 5.53343C5.83587 5.51401 5.88187 5.49229 5.92684 5.46827C5.97156 5.44425 6.01526 5.41818 6.05768 5.38981C6.10011 5.36145 6.14074 5.33104 6.18035 5.29884C6.2197 5.26664 6.25727 5.2324 6.2933 5.19636C6.32933 5.16033 6.36357 5.12277 6.39577 5.08341C6.42797 5.04406 6.45838 5.00317 6.48675 4.96075C6.51486 4.91833 6.54118 4.87489 6.5652 4.82991C6.58922 4.78493 6.61094 4.73893 6.63037 4.69191C6.64979 4.64489 6.66691 4.59685 6.68173 4.5483C6.69655 4.49949 6.70882 4.45017 6.71879 4.40033C6.72875 4.35025 6.73616 4.2999 6.74127 4.24931C6.74613 4.19871 6.74868 4.14785 6.74868 4.09674C6.74868 4.04589 6.74613 3.99504 6.74127 3.94444C6.73616 3.89384 6.72875 3.8435 6.71879 3.79341C6.70882 3.74358 6.69655 3.69426 6.68173 3.64545C6.66691 3.59664 6.64979 3.54885 6.63037 3.50183C6.61094 3.45481 6.58922 3.40881 6.5652 3.36383C6.54118 3.31886 6.51486 3.27541 6.48675 3.23299C6.45838 3.19057 6.42797 3.14968 6.39577 3.11033C6.36357 3.07098 6.32933 3.03341 6.2933 2.99738C6.25727 2.96135 6.2197 2.9271 6.18035 2.8949C6.14074 2.86245 6.10011 2.83229 6.05768 2.80393C6.01526 2.77556 5.97156 2.7495 5.92684 2.72548C5.88187 2.70145 5.83587 2.67973 5.78885 2.66031C5.74183 2.64063 5.69378 2.62351 5.64523 2.60895C5.59642 2.59412 5.5471 2.5816 5.49701 2.57164C5.44718 2.56192 5.39684 2.55426 5.34624 2.5494C5.29539 2.54429 5.24479 2.54199 5.19368 2.54199Z" fill="#571AFF"/>
<path d="M6.01594 2.13794C5.96483 2.13794 5.91424 2.14049 5.86338 2.14535C5.81278 2.15046 5.76244 2.15787 5.71261 2.16784C5.66252 2.1778 5.6132 2.19007 5.56439 2.20489C5.51584 2.21971 5.46779 2.23684 5.42077 2.25626C5.37375 2.27568 5.32775 2.29766 5.28278 2.32142C5.23806 2.34544 5.19436 2.37177 5.15194 2.39988C5.10952 2.42824 5.06889 2.45865 5.02953 2.49085C4.99018 2.52331 4.95236 2.55729 4.91632 2.59333C4.88029 2.62936 4.8463 2.66718 4.81385 2.70653C4.78165 2.74589 4.75124 2.78677 4.72287 2.82894C4.69476 2.87136 4.66844 2.91506 4.64442 2.95978C4.6204 3.00476 4.59868 3.05076 4.57926 3.09778C4.55983 3.1448 4.54271 3.19284 4.52789 3.24165C4.51307 3.2902 4.5008 3.33952 4.49084 3.38961C4.48087 3.43944 4.47346 3.48979 4.46835 3.54038C4.46349 3.59124 4.46094 3.64209 4.46094 3.69295C4.46094 3.7438 4.46349 3.79465 4.46835 3.84525C4.47346 3.89611 4.48087 3.94619 4.49084 3.99628C4.5008 4.04611 4.51307 4.09543 4.52789 4.14424C4.54271 4.19305 4.55983 4.24084 4.57926 4.28786C4.59868 4.33514 4.6204 4.38088 4.64442 4.42586C4.66844 4.47083 4.69476 4.51453 4.72287 4.5567C4.75124 4.59912 4.78165 4.64001 4.81385 4.67936C4.8463 4.71871 4.88029 4.75653 4.91632 4.79231C4.95236 4.82834 4.99018 4.86259 5.02953 4.89479C5.06889 4.92724 5.10952 4.9574 5.15194 4.98576C5.19436 5.01413 5.23806 5.04019 5.28278 5.06421C5.32775 5.08824 5.37375 5.10996 5.42077 5.12963C5.46779 5.14906 5.51584 5.16618 5.56439 5.181C5.6132 5.19582 5.66252 5.20809 5.71261 5.21805C5.76244 5.22802 5.81278 5.23543 5.86338 5.24029C5.91424 5.2454 5.96483 5.24795 6.01594 5.24795C6.0668 5.24795 6.11765 5.2454 6.16825 5.24029C6.2191 5.23543 6.26919 5.22802 6.31928 5.21805C6.36911 5.20809 6.41843 5.19582 6.46724 5.181C6.51605 5.16618 6.56384 5.14906 6.61086 5.12963C6.65788 5.10996 6.70388 5.08824 6.74885 5.06421C6.79383 5.04019 6.83753 5.01413 6.8797 4.98576C6.92212 4.9574 6.963 4.92724 7.00236 4.89479C7.04171 4.86259 7.07928 4.82834 7.11531 4.79231C7.15134 4.75653 7.18559 4.71871 7.21778 4.67936C7.25024 4.64001 7.28039 4.59912 7.30876 4.5567C7.33713 4.51453 7.36319 4.47083 7.38721 4.42586C7.41123 4.38088 7.43296 4.33514 7.45238 4.28786C7.47205 4.24084 7.48918 4.19305 7.504 4.14424C7.51856 4.09543 7.53109 4.04611 7.54105 3.99628C7.55102 3.94619 7.55843 3.89611 7.56329 3.84525C7.5684 3.79465 7.57095 3.7438 7.57095 3.69295C7.57095 3.64209 7.5684 3.59124 7.56329 3.54038C7.55843 3.48979 7.55102 3.43944 7.54105 3.38961C7.53109 3.33952 7.51856 3.2902 7.504 3.24165C7.48918 3.19284 7.47205 3.1448 7.45238 3.09778C7.43296 3.05076 7.41123 3.00476 7.38721 2.95978C7.36319 2.91506 7.33713 2.87136 7.30876 2.82894C7.28039 2.78677 7.25024 2.74589 7.21778 2.70653C7.18559 2.66718 7.15134 2.62936 7.11531 2.59333C7.07928 2.55729 7.04171 2.52331 7.00236 2.49085C6.963 2.45865 6.92212 2.42824 6.8797 2.39988C6.83753 2.37177 6.79383 2.34544 6.74885 2.32142C6.70388 2.29766 6.65788 2.27568 6.61086 2.25626C6.56384 2.23684 6.51605 2.21971 6.46724 2.20489C6.41843 2.19007 6.36911 2.1778 6.31928 2.16784C6.26919 2.15787 6.2191 2.15046 6.16825 2.14535C6.11765 2.14049 6.0668 2.13794 6.01594 2.13794Z" fill="#571AFF"/>
<path d="M6.74837 1.45215C6.69751 1.45215 6.64666 1.4547 6.59606 1.45956C6.54521 1.46467 6.49512 1.47208 6.44503 1.48205C6.3952 1.49201 6.34588 1.50428 6.29707 1.5191C6.24826 1.53392 6.20047 1.55105 6.15345 1.57047C6.10617 1.58989 6.06043 1.61161 6.01546 1.63563C5.97048 1.65965 5.92678 1.68597 5.88462 1.71408C5.84219 1.74245 5.80131 1.77286 5.76195 1.80506C5.7226 1.83726 5.68478 1.8715 5.649 1.90753C5.61297 1.94357 5.57872 1.98113 5.54653 2.02074C5.51407 2.0601 5.48392 2.10073 5.45555 2.14315C5.42719 2.18557 5.40112 2.22927 5.3771 2.27399C5.35308 2.31897 5.33136 2.36496 5.31193 2.41198C5.29226 2.45901 5.27513 2.50705 5.26031 2.5556C5.24549 2.60441 5.23322 2.65373 5.22326 2.70382C5.21329 2.75365 5.20588 2.80399 5.20103 2.85459C5.19591 2.90545 5.19336 2.95605 5.19336 3.00716C5.19336 3.05801 5.19591 3.10886 5.20103 3.15946C5.20588 3.21006 5.21329 3.2604 5.22326 3.31049C5.23322 3.36032 5.24549 3.40964 5.26031 3.45845C5.27513 3.50726 5.29226 3.55505 5.31193 3.60207C5.33136 3.64909 5.35308 3.69509 5.3771 3.74007C5.40112 3.78504 5.42719 3.82874 5.45555 3.87091C5.48392 3.91333 5.51407 3.95421 5.54653 3.99357C5.57872 4.03292 5.61297 4.07049 5.649 4.10652C5.68478 4.14255 5.7226 4.1768 5.76195 4.209C5.80131 4.24145 5.84219 4.2716 5.88462 4.29997C5.92678 4.32834 5.97048 4.3544 6.01546 4.37842C6.06043 4.40244 6.10617 4.42417 6.15345 4.44359C6.20047 4.46326 6.24826 4.48039 6.29707 4.49521C6.34588 4.50977 6.3952 4.5223 6.44503 4.53226C6.49512 4.54223 6.54521 4.54964 6.59606 4.5545C6.64666 4.55961 6.69751 4.56216 6.74837 4.56216C6.79922 4.56216 6.85007 4.55961 6.90093 4.5545C6.95153 4.54964 7.00187 4.54223 7.0517 4.53226C7.10179 4.5223 7.15111 4.50977 7.19992 4.49521C7.24847 4.48039 7.29652 4.46326 7.34354 4.44359C7.39056 4.42417 7.43656 4.40244 7.48153 4.37842C7.52625 4.3544 7.56995 4.32834 7.61237 4.29997C7.65454 4.2716 7.69542 4.24145 7.73478 4.209C7.77413 4.1768 7.81195 4.14255 7.84799 4.10652C7.88402 4.07049 7.91801 4.03292 7.95046 3.99357C7.98266 3.95421 8.01307 3.91333 8.04144 3.87091C8.06955 3.82874 8.09587 3.78504 8.11989 3.74007C8.14365 3.69509 8.16563 3.64909 8.18505 3.60207C8.20447 3.55505 8.2216 3.50726 8.23642 3.45845C8.25124 3.40964 8.26351 3.36032 8.27347 3.31049C8.28344 3.2604 8.29085 3.21006 8.29596 3.15946C8.30082 3.10886 8.30337 3.05801 8.30337 3.00716C8.30337 2.95605 8.30082 2.90545 8.29596 2.85459C8.29085 2.80399 8.28344 2.75365 8.27347 2.70382C8.26351 2.65373 8.25124 2.60441 8.23642 2.5556C8.2216 2.50705 8.20447 2.45901 8.18505 2.41198C8.16563 2.36496 8.14365 2.31897 8.11989 2.27399C8.09587 2.22927 8.06955 2.18557 8.04144 2.14315C8.01307 2.10073 7.98266 2.0601 7.95046 2.02074C7.91801 1.98113 7.88402 1.94357 7.84799 1.90753C7.81195 1.8715 7.77413 1.83726 7.73478 1.80506C7.69542 1.77286 7.65454 1.74245 7.61237 1.71408C7.56995 1.68597 7.52625 1.65965 7.48153 1.63563C7.43656 1.61161 7.39056 1.58989 7.34354 1.57047C7.29652 1.55105 7.24847 1.53392 7.19992 1.5191C7.15111 1.50428 7.10179 1.49201 7.0517 1.48205C7.00187 1.47208 6.95153 1.46467 6.90093 1.45956C6.85007 1.4547 6.79922 1.45215 6.74837 1.45215Z" fill="#571AFF"/>
<path d="M19.8953 3.34521C19.8365 3.34521 19.7785 3.35109 19.721 3.36234C19.6635 3.37384 19.6078 3.3907 19.5536 3.41319C19.4995 3.43568 19.4481 3.46302 19.3995 3.49573C19.3507 3.52819 19.3058 3.56524 19.2641 3.60664C19.2227 3.64804 19.1859 3.69327 19.1532 3.74182C19.1207 3.79063 19.0931 3.842 19.0706 3.89618C19.0484 3.95035 19.0313 4.00606 19.0201 4.06356C19.0086 4.12106 19.0029 4.17907 19.0029 4.23759C19.0029 4.29611 19.0086 4.35437 19.0201 4.41161C19.0313 4.46911 19.0484 4.52508 19.0706 4.579C19.0931 4.63317 19.1207 4.68479 19.1532 4.73335C19.1859 4.78216 19.2227 4.82713 19.2641 4.86853C19.3058 4.90993 19.3507 4.94699 19.3995 4.9797C19.4481 5.01215 19.4995 5.03975 19.5536 5.06198C19.6078 5.08447 19.6635 5.10134 19.721 5.11284C19.7785 5.12434 19.8365 5.12996 19.8953 5.12996C19.9538 5.12996 20.0118 5.12434 20.0693 5.11284C20.1268 5.10134 20.1825 5.08447 20.2367 5.06198C20.2909 5.03975 20.3423 5.01215 20.3908 4.9797C20.4396 4.94699 20.4848 4.90993 20.5262 4.86853C20.5676 4.82713 20.6047 4.78216 20.6372 4.73335C20.6696 4.68479 20.6972 4.63317 20.7197 4.579C20.7419 4.52508 20.7591 4.46911 20.7703 4.41161C20.7818 4.35437 20.7874 4.29611 20.7874 4.23759C20.7874 4.17907 20.7818 4.12106 20.7703 4.06356C20.7591 4.00606 20.7419 3.95035 20.7197 3.89618C20.6972 3.842 20.6696 3.79063 20.6372 3.74182C20.6047 3.69327 20.5676 3.64804 20.5262 3.60664C20.4848 3.56524 20.4396 3.52819 20.3908 3.49573C20.3423 3.46302 20.2909 3.43568 20.2367 3.41319C20.1825 3.3907 20.1268 3.37384 20.0693 3.36234C20.0118 3.35109 19.9538 3.34521 19.8953 3.34521Z" fill="#571AFF"/>
<path d="M19.2816 17.7114C19.2305 17.7114 19.1796 17.7137 19.129 17.7188C19.0784 17.7237 19.0281 17.7314 18.978 17.7411C18.9281 17.751 18.8788 17.7636 18.83 17.7784C18.7812 17.7929 18.7334 17.8101 18.6864 17.8297C18.6394 17.8492 18.5934 17.8709 18.5484 17.8949C18.5034 17.9189 18.46 17.945 18.4176 17.9734C18.3751 18.0017 18.3343 18.0319 18.2949 18.0643C18.2555 18.0965 18.218 18.1308 18.1819 18.1668C18.1459 18.2028 18.1117 18.2404 18.0795 18.2798C18.047 18.3191 18.0169 18.36 17.9885 18.4024C17.9601 18.4448 17.9341 18.4883 17.91 18.5333C17.886 18.5782 17.8643 18.6242 17.8449 18.6713C17.8255 18.7183 17.8083 18.7661 17.7935 18.8149C17.7787 18.8637 17.7662 18.913 17.7565 18.9628C17.7465 19.0129 17.7391 19.0633 17.734 19.1139C17.7289 19.1645 17.7266 19.2153 17.7266 19.2662C17.7266 19.3173 17.7289 19.3681 17.734 19.4187C17.7391 19.4693 17.7465 19.5197 17.7565 19.5698C17.7662 19.6196 17.7787 19.6689 17.7935 19.7177C17.8083 19.7663 17.8255 19.8143 17.8449 19.8614C17.8643 19.9084 17.886 19.9544 17.91 19.9993C17.9341 20.0443 17.9601 20.0878 17.9885 20.1302C18.0169 20.1726 18.047 20.2135 18.0795 20.2528C18.1117 20.2922 18.1459 20.3298 18.1819 20.3658C18.218 20.4018 18.2555 20.4361 18.2949 20.4683C18.3343 20.5005 18.3751 20.5309 18.4176 20.5593C18.46 20.5876 18.5034 20.6137 18.5484 20.6377C18.5934 20.6617 18.6394 20.6834 18.6864 20.7029C18.7334 20.7223 18.7812 20.7394 18.83 20.7542C18.8788 20.7691 18.9281 20.7813 18.978 20.7913C19.0281 20.8013 19.0784 20.8087 19.129 20.8138C19.1796 20.8189 19.2305 20.8212 19.2816 20.8212C19.3324 20.8212 19.3833 20.8189 19.4339 20.8138C19.4845 20.8087 19.5348 20.8013 19.5849 20.7913C19.6347 20.7813 19.6841 20.7691 19.7329 20.7542C19.7817 20.7394 19.8295 20.7223 19.8765 20.7029C19.9235 20.6834 19.9695 20.6617 20.0145 20.6377C20.0595 20.6137 20.1029 20.5876 20.1453 20.5593C20.1877 20.5309 20.2286 20.5005 20.268 20.4683C20.3073 20.4361 20.3449 20.4018 20.3809 20.3658C20.417 20.3298 20.4512 20.2922 20.4834 20.2528C20.5159 20.2135 20.546 20.1726 20.5744 20.1302C20.6028 20.0878 20.6288 20.0443 20.6528 19.9993C20.6769 19.9544 20.6986 19.9084 20.718 19.8614C20.7374 19.8143 20.7548 19.7663 20.7694 19.7177C20.7842 19.6689 20.7967 19.6196 20.8064 19.5698C20.8164 19.5197 20.8241 19.4693 20.8289 19.4187C20.834 19.3681 20.8363 19.3173 20.8363 19.2662C20.8363 19.2153 20.834 19.1645 20.8289 19.1139C20.8241 19.0633 20.8164 19.0129 20.8064 18.9628C20.7967 18.913 20.7842 18.8637 20.7694 18.8149C20.7548 18.7661 20.7374 18.7183 20.718 18.6713C20.6986 18.6242 20.6769 18.5782 20.6528 18.5333C20.6288 18.4883 20.6028 18.4448 20.5744 18.4024C20.546 18.36 20.5159 18.3191 20.4834 18.2798C20.4512 18.2404 20.417 18.2028 20.3809 18.1668C20.3449 18.1308 20.3073 18.0965 20.268 18.0643C20.2286 18.0319 20.1877 18.0017 20.1453 17.9734C20.1029 17.945 20.0595 17.9189 20.0145 17.8949C19.9695 17.8709 19.9235 17.8492 19.8765 17.8297C19.8295 17.8101 19.7817 17.7929 19.7329 17.7784C19.6841 17.7636 19.6347 17.751 19.5849 17.7411C19.5348 17.7314 19.4845 17.7237 19.4339 17.7188C19.3833 17.7137 19.3324 17.7114 19.2816 17.7114Z" fill="#571AFF"/>
<path d="M19.6253 17.3091C19.5742 17.3091 19.5234 17.3116 19.4728 17.3165C19.4222 17.3216 19.3718 17.329 19.3217 17.339C19.2719 17.3489 19.2226 17.3612 19.1738 17.376C19.125 17.3909 19.0772 17.408 19.0301 17.4274C18.9831 17.4468 18.9371 17.4685 18.8922 17.4926C18.8472 17.5166 18.8037 17.5429 18.7613 17.571C18.7189 17.5994 18.678 17.6298 18.6386 17.662C18.5993 17.6942 18.5617 17.7284 18.5257 17.7645C18.4897 17.8005 18.4554 17.8381 18.4232 17.8774C18.3908 17.9168 18.3606 17.9577 18.3322 18.0001C18.3039 18.0425 18.2778 18.0859 18.2538 18.1309C18.2298 18.1759 18.2081 18.2219 18.1886 18.2689C18.1692 18.3159 18.1521 18.364 18.1373 18.4125C18.1224 18.4613 18.1099 18.5107 18.1002 18.5608C18.0902 18.6106 18.0828 18.6609 18.0777 18.7115C18.0726 18.7624 18.0703 18.813 18.0703 18.8641C18.0703 18.9149 18.0726 18.9658 18.0777 19.0164C18.0828 19.067 18.0902 19.1173 18.1002 19.1674C18.1099 19.2173 18.1224 19.2666 18.1373 19.3154C18.1521 19.3642 18.1692 19.412 18.1886 19.459C18.2081 19.506 18.2298 19.552 18.2538 19.597C18.2778 19.642 18.3039 19.6854 18.3322 19.7278C18.3606 19.7703 18.3908 19.8111 18.4232 19.8505C18.4554 19.8899 18.4897 19.9274 18.5257 19.9635C18.5617 19.9995 18.5993 20.0337 18.6386 20.0659C18.678 20.0984 18.7189 20.1285 18.7613 20.1569C18.8037 20.1853 18.8472 20.2113 18.8922 20.2354C18.9371 20.2594 18.9831 20.2811 19.0301 20.3005C19.0772 20.3202 19.125 20.3373 19.1738 20.3519C19.2226 20.3667 19.2719 20.3792 19.3217 20.3892C19.3718 20.3989 19.4222 20.4066 19.4728 20.4114C19.5234 20.4165 19.5742 20.4188 19.6253 20.4188C19.6762 20.4188 19.727 20.4165 19.7776 20.4114C19.8282 20.4066 19.8786 20.3989 19.9287 20.3892C19.9785 20.3792 20.0278 20.3667 20.0766 20.3519C20.1254 20.3373 20.1732 20.3202 20.2202 20.3005C20.2673 20.2811 20.3133 20.2594 20.3582 20.2354C20.4032 20.2113 20.4466 20.1853 20.4891 20.1569C20.5315 20.1285 20.5724 20.0984 20.6117 20.0659C20.6511 20.0337 20.6887 19.9995 20.7247 19.9635C20.7607 19.9274 20.795 19.8899 20.8272 19.8505C20.8596 19.8111 20.8898 19.7703 20.9181 19.7278C20.9465 19.6854 20.9726 19.642 20.9966 19.597C21.0206 19.552 21.0423 19.506 21.0618 19.459C21.0812 19.412 21.0985 19.3642 21.1131 19.3154C21.1279 19.2666 21.1405 19.2173 21.1502 19.1674C21.1601 19.1173 21.1678 19.067 21.1727 19.0164C21.1778 18.9658 21.1801 18.9149 21.1801 18.8641C21.1801 18.813 21.1778 18.7624 21.1727 18.7115C21.1678 18.6609 21.1601 18.6106 21.1502 18.5608C21.1405 18.5107 21.1279 18.4613 21.1131 18.4125C21.0985 18.364 21.0812 18.3159 21.0618 18.2689C21.0423 18.2219 21.0206 18.1759 20.9966 18.1309C20.9726 18.0859 20.9465 18.0425 20.9181 18.0001C20.8898 17.9577 20.8596 17.9168 20.8272 17.8774C20.795 17.8381 20.7607 17.8005 20.7247 17.7645C20.6887 17.7284 20.6511 17.6942 20.6117 17.662C20.5724 17.6298 20.5315 17.5994 20.4891 17.571C20.4466 17.5429 20.4032 17.5166 20.3582 17.4926C20.3133 17.4685 20.2673 17.4468 20.2202 17.4274C20.1732 17.408 20.1254 17.3909 20.0766 17.376C20.0278 17.3612 19.9785 17.3489 19.9287 17.339C19.8786 17.329 19.8282 17.3216 19.7776 17.3165C19.727 17.3116 19.6762 17.3091 19.6253 17.3091Z" fill="#571AFF"/>
<path d="M4.51001 18.606C4.47295 18.606 4.4359 18.6077 4.3991 18.6113C4.36204 18.6152 4.3255 18.6205 4.28921 18.6277C4.25267 18.6351 4.21689 18.644 4.18137 18.6548C4.14585 18.6655 4.1111 18.678 4.07685 18.6921C4.04261 18.7064 4.00913 18.7222 3.97642 18.7396C3.94371 18.7572 3.91177 18.7762 3.8811 18.7969C3.85018 18.8173 3.82054 18.8395 3.79192 18.863C3.76304 18.8865 3.7357 18.9113 3.70937 18.9377C3.68331 18.9637 3.65827 18.9913 3.63475 19.0199C3.61124 19.0486 3.58927 19.0782 3.56857 19.1091C3.54812 19.1401 3.52896 19.1717 3.51158 19.2044C3.4942 19.2372 3.47836 19.2706 3.46405 19.3049C3.44999 19.3391 3.43747 19.3739 3.42674 19.4094C3.41575 19.4449 3.40681 19.481 3.39965 19.5172C3.3925 19.5535 3.38687 19.5903 3.3833 19.6271C3.37972 19.6639 3.37793 19.701 3.37793 19.738C3.37793 19.7751 3.37972 19.8121 3.3833 19.8489C3.38687 19.886 3.3925 19.9225 3.39965 19.9588C3.40681 19.9954 3.41575 20.0311 3.42674 20.0667C3.43747 20.1022 3.44999 20.1369 3.46405 20.1714C3.47836 20.2057 3.4942 20.2392 3.51158 20.2719C3.52896 20.3043 3.54812 20.3363 3.56857 20.3669C3.58927 20.3979 3.61124 20.4275 3.63475 20.4564C3.65827 20.485 3.68331 20.5123 3.70937 20.5387C3.7357 20.5647 3.76304 20.5898 3.79192 20.6133C3.82054 20.6368 3.85018 20.6588 3.8811 20.6795C3.91177 20.6999 3.94371 20.7191 3.97642 20.7365C4.00913 20.7541 4.04261 20.7699 4.07685 20.784C4.1111 20.7983 4.14585 20.8106 4.18137 20.8216C4.21689 20.8323 4.25267 20.8412 4.28921 20.8484C4.3255 20.8555 4.36204 20.8612 4.3991 20.8647C4.4359 20.8683 4.47295 20.8701 4.51001 20.8701C4.54706 20.8701 4.58411 20.8683 4.62091 20.8647C4.65797 20.8612 4.69451 20.8555 4.7308 20.8484C4.76709 20.8412 4.80312 20.8323 4.83864 20.8216C4.87416 20.8106 4.90891 20.7983 4.94316 20.784C4.9774 20.7699 5.01088 20.7541 5.04359 20.7365C5.0763 20.7191 5.10799 20.6999 5.13891 20.6795C5.16983 20.6588 5.19947 20.6368 5.22809 20.6133C5.25671 20.5898 5.28431 20.5647 5.31038 20.5387C5.3367 20.5123 5.36149 20.485 5.385 20.4564C5.40851 20.4275 5.43074 20.3979 5.45119 20.3669C5.47189 20.3363 5.4908 20.3043 5.50843 20.2719C5.52581 20.2392 5.54165 20.2057 5.55596 20.1714C5.57002 20.1369 5.58254 20.1022 5.59327 20.0667C5.604 20.0311 5.6132 19.9954 5.62036 19.9588C5.62751 19.9225 5.63288 19.886 5.63671 19.8489C5.64029 19.8121 5.64208 19.7751 5.64208 19.738C5.64208 19.701 5.64029 19.6639 5.63671 19.6271C5.63288 19.5903 5.62751 19.5535 5.62036 19.5172C5.6132 19.481 5.604 19.4449 5.59327 19.4094C5.58254 19.3739 5.57002 19.3391 5.55596 19.3049C5.54165 19.2706 5.52581 19.2372 5.50843 19.2044C5.4908 19.1717 5.47189 19.1401 5.45119 19.1091C5.43074 19.0782 5.40851 19.0486 5.385 19.0199C5.36149 18.9913 5.3367 18.9637 5.31038 18.9377C5.28431 18.9113 5.25671 18.8865 5.22809 18.863C5.19947 18.8395 5.16983 18.8173 5.13891 18.7969C5.10799 18.7762 5.0763 18.7572 5.04359 18.7396C5.01088 18.7222 4.9774 18.7064 4.94316 18.6921C4.90891 18.678 4.87416 18.6655 4.83864 18.6548C4.80312 18.644 4.76709 18.6351 4.7308 18.6277C4.69451 18.6205 4.65797 18.6152 4.62091 18.6113C4.58411 18.6077 4.54706 18.606 4.51001 18.606Z" fill="#571AFF"/>
<path d="M4.46126 17.4565C4.4104 17.4565 4.35955 17.4591 4.30869 17.464C4.2581 17.4691 4.20775 17.4765 4.15792 17.4864C4.10783 17.4964 4.05851 17.5087 4.00996 17.5235C3.96115 17.5383 3.91311 17.5554 3.86609 17.5749C3.81907 17.5943 3.77307 17.616 3.72835 17.64C3.68337 17.664 3.63967 17.6904 3.59725 17.7185C3.55508 17.7468 3.5142 17.7773 3.47484 17.8095C3.43549 17.8417 3.39767 17.8759 3.36164 17.9119C3.3256 17.948 3.29162 17.9855 3.25916 18.0249C3.22696 18.0642 3.19655 18.1051 3.16844 18.1475C3.14008 18.19 3.11375 18.2334 3.08999 18.2784C3.06597 18.3234 3.04425 18.3694 3.02457 18.4164C3.00515 18.4634 2.98803 18.5114 2.9732 18.56C2.95838 18.6088 2.94612 18.6581 2.93615 18.7082C2.92618 18.758 2.91877 18.8084 2.91366 18.859C2.90881 18.9098 2.90625 18.9604 2.90625 19.0115C2.90625 19.0624 2.90881 19.1133 2.91366 19.1639C2.91877 19.2145 2.92618 19.2648 2.93615 19.3149C2.94612 19.3647 2.95838 19.414 2.9732 19.4628C2.98803 19.5117 3.00515 19.5594 3.02457 19.6065C3.04425 19.6535 3.06597 19.6995 3.08999 19.7445C3.11375 19.7894 3.14008 19.8329 3.16844 19.8753C3.19655 19.9177 3.22696 19.9586 3.25916 19.998C3.29162 20.0373 3.3256 20.0749 3.36164 20.1109C3.39767 20.1469 3.43549 20.1812 3.47484 20.2134C3.5142 20.2458 3.55508 20.276 3.59725 20.3044C3.63967 20.3327 3.68337 20.3588 3.72835 20.3828C3.77307 20.4068 3.81907 20.4286 3.86609 20.448C3.91311 20.4677 3.96115 20.4848 4.00996 20.4993C4.05851 20.5142 4.10783 20.5267 4.15792 20.5367C4.20775 20.5464 4.2581 20.554 4.30869 20.5589C4.35955 20.564 4.4104 20.5663 4.46126 20.5663C4.51211 20.5663 4.56296 20.564 4.61356 20.5589C4.66442 20.554 4.71476 20.5464 4.76459 20.5367C4.81442 20.5267 4.864 20.5142 4.91255 20.4993C4.96136 20.4848 5.00915 20.4677 5.05617 20.448C5.10345 20.4286 5.14945 20.4068 5.19417 20.3828C5.23914 20.3588 5.28284 20.3327 5.32501 20.3044C5.36743 20.276 5.40832 20.2458 5.44767 20.2134C5.48702 20.1812 5.52484 20.1469 5.56088 20.1109C5.59665 20.0749 5.6309 20.0373 5.66335 19.998C5.69555 19.9586 5.72596 19.9177 5.75407 19.8753C5.78244 19.8329 5.8085 19.7894 5.83252 19.7445C5.85655 19.6995 5.87827 19.6535 5.89794 19.6065C5.91737 19.5594 5.93449 19.5117 5.94931 19.4628C5.96413 19.414 5.9764 19.3647 5.98636 19.3149C5.99633 19.2648 6.00374 19.2145 6.0086 19.1639C6.01371 19.1133 6.01626 19.0624 6.01626 19.0115C6.01626 18.9604 6.01371 18.9098 6.0086 18.859C6.00374 18.8084 5.99633 18.758 5.98636 18.7082C5.9764 18.6581 5.96413 18.6088 5.94931 18.56C5.93449 18.5114 5.91737 18.4634 5.89794 18.4164C5.87827 18.3694 5.85655 18.3234 5.83252 18.2784C5.8085 18.2334 5.78244 18.19 5.75407 18.1475C5.72596 18.1051 5.69555 18.0642 5.66335 18.0249C5.6309 17.9855 5.59665 17.948 5.56088 17.9119C5.52484 17.8759 5.48702 17.8417 5.44767 17.8095C5.40832 17.7773 5.36743 17.7468 5.32501 17.7185C5.28284 17.6904 5.23914 17.664 5.19417 17.64C5.14945 17.616 5.10345 17.5943 5.05617 17.5749C5.00915 17.5554 4.96136 17.5383 4.91255 17.5235C4.864 17.5087 4.81442 17.4964 4.76459 17.4864C4.71476 17.4765 4.66442 17.4691 4.61356 17.464C4.56296 17.4591 4.51211 17.4565 4.46126 17.4565Z" fill="#571AFF"/>
<path d="M7.47298 21.3464C7.37076 21.3464 7.26956 21.3508 7.16964 21.3592C7.06947 21.3676 6.9721 21.3802 6.87781 21.3968C6.78351 21.4136 6.69381 21.4338 6.60897 21.4581C6.52413 21.4824 6.44542 21.5097 6.37335 21.5404C6.30103 21.5713 6.23664 21.6048 6.17991 21.6408C6.12317 21.6771 6.07539 21.7152 6.03629 21.7556C5.99719 21.7957 5.9678 21.8371 5.94787 21.8798C5.92794 21.9224 5.91797 21.9656 5.91797 22.0091C5.91797 22.0525 5.92794 22.0957 5.94787 22.1384C5.9678 22.1811 5.99719 22.2225 6.03629 22.2626C6.07539 22.303 6.12317 22.341 6.17991 22.3773C6.23664 22.4133 6.30103 22.4468 6.37335 22.4777C6.44542 22.5084 6.52413 22.5358 6.60897 22.56C6.69381 22.5843 6.78351 22.6045 6.87781 22.6214C6.9721 22.638 7.06947 22.6505 7.16964 22.6589C7.26956 22.6674 7.37076 22.6717 7.47298 22.6717C7.57494 22.6717 7.67614 22.6674 7.77631 22.6589C7.87649 22.6505 7.97359 22.638 8.06789 22.6214C8.16219 22.6045 8.25188 22.5843 8.33673 22.56C8.42157 22.5358 8.50028 22.5084 8.57234 22.4777C8.64466 22.4468 8.70906 22.4133 8.76579 22.3773C8.82252 22.341 8.87031 22.303 8.90941 22.2626C8.94851 22.2225 8.97815 22.1811 8.99808 22.1384C9.01776 22.0957 9.02773 22.0525 9.02773 22.0091C9.02773 21.9656 9.01776 21.9224 8.99808 21.8798C8.97815 21.8371 8.94851 21.7957 8.90941 21.7556C8.87031 21.7152 8.82252 21.6771 8.76579 21.6408C8.70906 21.6048 8.64466 21.5713 8.57234 21.5404C8.50028 21.5097 8.42157 21.4824 8.33673 21.4581C8.25188 21.4338 8.16219 21.4136 8.06789 21.3968C7.97359 21.3802 7.87649 21.3676 7.77631 21.3592C7.67614 21.3508 7.57494 21.3464 7.47298 21.3464Z" fill="#571AFF"/>
</svg>
