<svg width="24" height="24" viewBox="0 0 24 24" fill="none" xmlns="http://www.w3.org/2000/svg">
<path d="M14.6146 23.2797C12.9956 23.2797 11.8139 22.8915 11.0694 22.115C10.3798 21.4577 9.97964 20.5554 9.95636 19.6052C9.94798 19.3166 10.0152 19.0307 10.1513 18.7757C10.2784 18.5554 10.4618 18.3726 10.683 18.246C10.9401 18.1183 11.2235 18.0519 11.5108 18.0519C11.7981 18.0519 12.0815 18.1183 12.3386 18.246C12.5594 18.3721 12.7421 18.5551 12.8673 18.7757C13.0074 19.0295 13.0771 19.3158 13.0693 19.6052C13.0838 19.9509 12.9842 20.2918 12.7857 20.5758C12.6203 20.8076 12.3839 20.9799 12.1119 21.0667C12.3779 21.4039 12.7542 21.6374 13.1754 21.7268C13.6466 21.863 14.1346 21.9331 14.6253 21.9349C15.275 21.9406 15.9112 21.7512 16.4511 21.3914C17.0112 20.9975 17.4289 20.4344 17.6423 19.7856C17.9128 19.0134 18.0448 18.1999 18.0322 17.3821C18.0541 16.5296 17.9096 15.681 17.6068 14.8833C17.3791 14.2452 16.9468 13.6995 16.3766 13.3303C15.8467 12.9965 15.2315 12.8213 14.6044 12.8257C14.0579 12.8718 13.531 13.0499 13.0693 13.3445L11.931 13.9127V13.3445L17.0466 6.51237H9.95636V13.6022C9.93633 14.1138 10.0723 14.6195 10.3463 15.0527C10.4789 15.2415 10.6583 15.393 10.8669 15.4926C11.0756 15.5921 11.3066 15.6363 11.5375 15.6209C11.9641 15.6123 12.3766 15.4676 12.7144 15.208C13.0972 14.9287 13.4304 14.5875 13.7 14.1985C13.7242 14.1304 13.769 14.0712 13.8282 14.0292C13.8756 13.9884 13.9363 13.9658 13.9991 13.9657C14.1222 13.9769 14.2388 14.0263 14.3324 14.1068C14.4508 14.2386 14.5153 14.4099 14.5131 14.5868C14.4994 14.7057 14.4781 14.8235 14.4493 14.9397C14.1974 15.5466 13.7752 16.0685 13.2332 16.4427C12.7298 16.7819 12.1353 16.9617 11.5275 16.9586C9.99239 16.9586 8.92892 16.6574 8.33708 16.0551C8.03288 15.7222 7.79843 15.3322 7.64746 14.9079C7.49649 14.4837 7.43204 14.0338 7.45787 13.5844V6.51237H3.85156V5.19508H7.47467V2.19157L6.64517 1.36518V0.69165H9.05222L9.95636 1.15759V5.19508L19.3225 5.16672L20.255 6.09846L14.5118 11.8439C14.8588 11.705 15.2242 11.617 15.5966 11.5827C16.3336 11.6148 17.0527 11.8192 17.6957 12.1792C18.4403 12.5316 19.0678 13.0891 19.5038 13.7856C19.8945 14.3753 20.1711 15.0325 20.3192 15.7233C20.441 16.2682 20.5064 16.8241 20.5142 17.3823C20.518 18.4475 20.2754 19.4994 19.8052 20.4563C19.3593 21.3829 18.6088 22.1301 17.678 22.574C16.7253 23.0414 15.6768 23.2829 14.6146 23.2797V23.2797Z" fill="#2C7DF7"/>
</svg>
