<svg width="24" height="24" viewBox="0 0 24 24" fill="none" xmlns="http://www.w3.org/2000/svg">
<path d="M12 0C18.6274 0 24 5.37257 24 12C24 18.6274 18.6274 24 12 24C5.37257 24 0 18.6274 0 12C0 5.37257 5.37257 0 12 0Z" fill="#FFE81C"/>
<path d="M19.7976 6.50916L18.3857 11.0952H14.8365L14.2886 11.5128L12.3652 19.4733H7.02001L8.01978 16.5007L8.09521 16.2106L5.90847 17.8708L8.9359 13.4705L9.64836 11.0952H4.81201L6.21087 6.50916H12.2685H12.7382L15.2198 4.91968L14.2077 6.50916H19.7976V6.50916Z" fill="#3F3F3F"/>
<path d="M17.8928 10.4091L18.8974 7.32129H14.4293L13.1978 9.33592L16.0085 10.396L17.8928 10.4091V10.4091Z" fill="#FFE81C"/>
<path d="M8.13184 15.5354L14.4973 10.7114L11.6866 9.52925L11.8587 9.25016L13.5373 6.61907L13.5504 6.59302L8.72704 9.68353L11.2512 11.0015L8.13184 15.5354V15.5354Z" fill="#FFE81C"/>
<path d="M11.7024 18.5785L13.1273 13.136L8.89441 16.4329L8.20801 18.5758H11.7024V18.5785V18.5785Z" fill="#FFE81C"/>
<path d="M6.93933 9.76929L10.7574 7.33157L6.66299 7.32129L5.71533 10.3933L8.44242 10.4091L6.93933 9.76929V9.76929Z" fill="#FFE81C"/>
</svg>
