<svg width="24" height="24" viewBox="0 0 24 24" fill="none" xmlns="http://www.w3.org/2000/svg">
<path d="M22.3874 7.49641C21.3286 6.51876 19.8639 5.02582 18.6709 3.967L18.6003 3.91759C18.4829 3.82327 18.3505 3.74931 18.2086 3.69876V3.69876C15.3321 3.16229 1.94506 0.659941 1.68388 0.691706C1.6107 0.701955 1.54074 0.728489 1.47917 0.769353L1.41211 0.822294C1.32954 0.906153 1.26683 1.00746 1.22858 1.11876L1.21094 1.16465V1.41524V1.45406C2.718 5.65053 8.66858 19.3976 9.84035 22.6235C9.91094 22.8423 10.0451 23.2588 10.2956 23.2799H10.3521C10.4862 23.2799 11.058 22.5246 11.058 22.5246C11.058 22.5246 21.2792 10.1294 22.3133 8.80935C22.4471 8.64675 22.5653 8.47186 22.6662 8.287C22.692 8.14236 22.6798 7.99352 22.631 7.85497C22.5821 7.71642 22.4982 7.59289 22.3874 7.49641V7.49641ZM13.6803 8.93994L18.0427 5.32229L20.6015 7.67994L13.6803 8.93994ZM11.9862 8.70347L4.47564 2.54818L16.6274 4.78935L11.9862 8.70347ZM12.6639 10.3164L20.3509 9.07759L11.5627 19.6658L12.6639 10.3164ZM3.45564 3.16229L11.358 9.86817L10.2145 19.6729L3.45564 3.16229Z" fill="#FF060A"/>
</svg>
