<svg width="24" height="24" viewBox="0 0 24 24" fill="none" xmlns="http://www.w3.org/2000/svg">
<circle cx="12" cy="12" r="12" fill="#EDF0F4"/>
<path d="M14.7656 12.947L11.5471 18.7736L8.27309 12.91C8.31626 12.9408 8.56535 13.0728 9.21644 13.3539C9.86754 13.6351 10.5606 13.7547 10.8257 13.7793C10.5667 13.6684 9.89344 13.3576 9.27193 13.0025C8.49506 12.5585 7.53321 11.8556 6.86731 11.2637C6.33459 10.7902 4.89429 9.30305 4.24072 8.61865C4.9991 9.14889 6.76003 10.3537 7.73668 10.9308C8.71332 11.5079 11.1278 12.5524 12.213 13.0025C12.0773 12.873 11.7284 12.5178 11.4176 12.1331C11.1068 11.7484 10.8195 11.2329 10.7147 11.0233C11.0415 11.2267 11.8097 11.6929 12.2685 11.9296C12.7272 12.1664 14.1244 12.7065 14.7656 12.947Z" fill="url(#paint0_linear)"/>
<path d="M14.5434 12.0221C16.4375 12.8804 18.9703 13.1813 20 13.2244C19.106 12.9285 16.9813 12.1849 15.6347 11.5782C14.2881 10.9715 13.3472 10.1292 13.0451 9.78396C13.2301 9.92576 13.7628 10.2686 14.4139 10.5054C15.065 10.7421 15.6963 10.8506 15.9306 10.8753L18.9827 5.40015H14.0809L11.5838 10.2094L8.56879 5.40015H4C4.4316 5.90574 5.53156 7.12038 6.47861 7.93425C7.42566 8.74812 8.93255 9.82714 9.56763 10.2649C9.33334 9.96893 8.82774 9.29564 8.67977 8.97009C8.53179 8.64454 8.40849 8.08223 8.36532 7.84177C8.77843 8.24254 9.71561 9.13286 10.1595 9.48801C10.7144 9.93194 12.1757 10.9493 14.5434 12.0221Z" fill="url(#paint1_linear)"/>
<defs>
<linearGradient id="paint0_linear" x1="2.15067" y1="8.56196" x2="9.2066" y2="20.459" gradientUnits="userSpaceOnUse">
<stop stop-color="#721951"/>
<stop offset="1" stop-color="#E4662E"/>
</linearGradient>
<linearGradient id="paint1_linear" x1="-3.73496" y1="6.79284" x2="-1.82843" y2="19.3069" gradientUnits="userSpaceOnUse">
<stop stop-color="#721951"/>
<stop offset="1" stop-color="#E4662E"/>
</linearGradient>
</defs>
</svg>
